<svg id="Layer_1" data-name="Layer 1" xmlns="http://www.w3.org/2000/svg" viewBox="0 0 647.92 78.39"><defs><style>.cls-1{fill:#24408f;}.cls-2{fill:#fad347;}.cls-3{fill:#fff;}</style></defs><title>southern-union-state-community-college</title><path class="cls-1" d="M193.49,276.75c-.71-.53-1.06-.71-1.36-.71s-.59.41-.94,1-.65.71-1.06.71-.65-.29-.53-.94c.24-1.47.83-9,1-10.67.06-.35.18-.35.41-.35l.88.06c.24,0,.35.12.35.47a11.58,11.58,0,0,0,2.12,6.84,9.85,9.85,0,0,0,8.25,4.36c3.54,0,8-2.18,8-7.49,0-6.07-4.36-8.31-9.08-10-1.83-.65-6.07-2.12-8.61-4.78-1.95-1.95-2.95-4.72-2.95-8.61a11.13,11.13,0,0,1,3.66-7.55,11.74,11.74,0,0,1,8.25-2.83,17,17,0,0,1,7,1.47c.53.29.83.24,1.12-.06l.77-.71a1.14,1.14,0,0,1,.77-.35c.29,0,.47.47.47,1,0,2.06.77,8.08.83,9.37,0,.29-.06.41-.29.47l-.71.18a.25.25,0,0,1-.35-.18,14.3,14.3,0,0,0-3.66-6.54,8.22,8.22,0,0,0-6.43-2.54,6.68,6.68,0,0,0-7.13,6.9,7.17,7.17,0,0,0,1.83,5.13c1.71,1.71,5,3,6.72,3.54,4.07,1.3,7.37,2.3,9.49,4.89,1.53,1.83,2.59,4.13,2.59,8,0,7-4.25,12.91-12,12.91A14.51,14.51,0,0,1,193.49,276.75Z" transform="translate(-105.45 -235.06)"/><path class="cls-1" d="M229.45,276c-4.19-2.54-8.67-8.9-8.67-17.51a22.9,22.9,0,0,1,5.48-14.68,19.29,19.29,0,0,1,16-7.49A19.86,19.86,0,0,1,255.46,241a22.71,22.71,0,0,1,8.08,17.63,21.51,21.51,0,0,1-4.42,12.91c-3.6,4.78-8.84,8.31-17,8.31A25.85,25.85,0,0,1,229.45,276Zm28.3-16.92c0-12.91-9.2-20.52-15.74-20.52-.88,0-4.89-.71-9.32,3.48-4,3.77-5.9,9.73-5.9,14.56,0,15.51,10.79,21,15.8,21C255.57,277.57,257.75,264.3,257.75,259.06Z" transform="translate(-105.45 -235.06)"/><path class="cls-1" d="M280.81,278.57a10.74,10.74,0,0,1-7-7.9c-.71-2.65-.94-6.6-.94-14.33v-14c0-2.06-.41-3-2.24-3h-2.77c-.35,0-.41-.12-.41-.53v-1.3c0-.35.06-.47.53-.47s3.48.18,8.08.18,7.43-.18,8.08-.18c.47,0,.53.12.53.35v1.53c0,.29-.06.41-.47.41h-2.95a2.66,2.66,0,0,0-2.83,2.42c-.06.53-.12,4.66-.12,7.66v3.89c0,3.12.24,10.61.29,12.5a14.14,14.14,0,0,0,1.89,7.49c2.18,3.18,6,4.25,9.37,4.25s6.78-1.12,8.84-3.24c2.3-2.48,3.07-6,3.07-10.38V251.27c0-4.48-.12-7.9-.29-9.37a2.63,2.63,0,0,0-2.65-2.59H296.2c-.35,0-.41-.18-.41-.47v-1.42c0-.29.06-.41.41-.41.59,0,3.3.18,7.25.18s6-.18,6.49-.18.59.24.59.41v1.3c0,.35-.06.59-.35.59h-2.42c-2.18,0-2.36,1.65-2.53,2.36s-.12,9-.12,9.79-.12,11.14-.29,13.44c-.35,4.83-1.65,8.55-5,11.38-2.36,2.18-6,3.54-11.08,3.54A21.91,21.91,0,0,1,280.81,278.57Z" transform="translate(-105.45 -235.06)"/><path class="cls-1" d="M330.82,239.31h-1.47c-1.89,0-7,0-9.32.71-2.65.83-4.42,5-5.25,6.84a.44.44,0,0,1-.59.3l-1.06-.3c-.18-.06-.35-.12-.24-.47.59-2.12,2.65-9.73,2.77-10.38s.35-.94.59-.94a1,1,0,0,1,.71.24l.77.53a4.87,4.87,0,0,0,3.36,1c3.12.12,5.6.35,11.14.35h2.83c6.43,0,9-.24,11.85-.35A5.8,5.8,0,0,0,350,236l1.12-.71a1.25,1.25,0,0,1,.71-.24c.3,0,.41.18.53.94s1.24,8,1.71,10.61c.06.29-.06.41-.35.47l-.94.24c-.24.06-.29,0-.47-.41-.47-1.12-2.24-5.66-4.19-6.6-1.77-.88-7.31-1-10.2-1h-1.65v16.8c0,.83,0,17.33.06,18.34.12,1.47.59,2.36,2,2.36H342c.53,0,.59.18.59.59v1.24c0,.3-.06.47-.59.47s-2.48-.18-8.25-.18-8.14.18-9,.18c-.47,0-.53-.24-.53-.59v-1.12c0-.41.06-.59.41-.59h4a1.77,1.77,0,0,0,1.95-1.42c.18-1.71.18-19.81.18-20.93Z" transform="translate(-105.45 -235.06)"/><path class="cls-1" d="M363.19,255.7c0-3.66-.12-11.62-.12-12.56,0-3-.41-3.83-2.59-3.83h-2.77c-.29,0-.35-.12-.35-.47v-1.42c0-.29.18-.41.47-.41,1.18,0,3.07.18,8.25.18,4.6,0,6.72-.18,7.84-.18.41,0,.59.06.59.29v1.53c0,.35-.12.47-.47.47h-3c-2,0-2.3,1-2.3,3.36,0,.83-.12,8.61-.12,11.91v1c0,.29.18.47.71.47h21.82c.88,0,1.18-.12,1.18-.88v-.59c0-3.36-.18-11.56-.18-12.26,0-1.89-.24-3-1.95-3h-3.07c-.29,0-.41-.12-.41-.41v-1.53c0-.24.06-.35.35-.35,1.24,0,3.77.18,7.78.18s6.43-.18,7.55-.18c.41,0,.47.12.47.47v1.42c0,.35-.12.41-.47.41h-2.65c-1.71,0-1.89,1-1.89,3.12,0,.83-.12,10.79-.12,13v2c0,1.89.12,13.09.18,16.45,0,2.12.59,2.95,2.36,2.95h2.59c.41,0,.53.12.53.41v1.41c0,.35-.12.47-.47.47-1.12,0-3.12-.18-7.43-.18-5.13,0-7,.18-8.79.18-.24,0-.35-.18-.35-.41v-1.47c0-.29.12-.41.47-.41h3.71c1.42,0,1.59-1.12,1.59-2.71.06-2.77.18-12.26.18-14.39v-.83c0-.65-.29-.71-1.3-.71H369.44c-.65,0-.83.18-.83.59V260c0,1.59.06,10.67.12,14.8.06,1.42.65,2,1.89,2h2.89c.35,0,.47.12.47.41v1.47c0,.29-.12.41-.47.41-1.12,0-3.18-.18-7.43-.18-5.07,0-6.84.18-8.2.18-.29,0-.41-.12-.41-.41v-1.53c0-.24.18-.35.41-.35h3.48c1.47,0,1.65-1.42,1.65-2.83.06-2.77.18-14.21.18-15.74Z" transform="translate(-105.45 -235.06)"/><path class="cls-1" d="M420.21,256.34c.47,0,6.78-.24,7.49-.35,1.71-.29,2.18-.77,2.71-2.59a14,14,0,0,0,.47-2.89.37.37,0,0,1,.41-.41l1.47.06a.35.35,0,0,1,.35.47c-.18,1-.18,5.84-.18,6.72,0,2.06.24,4.89.35,6.13a.41.41,0,0,1-.35.47l-1.3.18c-.29.06-.41-.12-.47-.53-.12-.77-.47-2.12-.65-2.77a2.77,2.77,0,0,0-2.54-2.3c-2.77-.29-6.84-.29-7.78-.29v3.66c0,3.18.12,8.9.12,10.08.06,3.07,1.53,4.25,3.36,4.6a24.35,24.35,0,0,0,4.36.41c1,0,4-.06,5.19-.18a11.37,11.37,0,0,0,5.13-2.06,54.17,54.17,0,0,0,4.83-6.19c.18-.29.35-.53.71-.35l.94.53c.29.18.29.35.12.83l-3.12,8.67a1.25,1.25,0,0,1-1.3.88c-.3,0-1.59-.06-5.13-.12s-9.26-.06-18.45-.06c-2.18,0-3.83.06-5,.06s-2,.12-2.54.12c-.35,0-.53-.12-.53-.41V277.1c0-.24.18-.29.59-.29h2.36c2.71,0,2.95-.41,2.95-2.59V254.46c0-4.89-.12-12.26-.18-12.85-.24-1.89-.83-2.3-3-2.3h-2.12c-.29,0-.47-.06-.47-.41V237.3c0-.18.12-.29.41-.29,1.3,0,3.36.18,7.25.18h2.59c5.84,0,11.67-.06,17.51-.06.94,0,2.06-.12,2.36-.12s.41.12.47.29c.24.83,2.83,8.9,3,9.49.06.24.06.41-.18.53l-.88.47c-.18.12-.41-.06-.47-.18s-4.48-5.84-5.9-6.72a9.12,9.12,0,0,0-4.48-1.59l-10.5-.24Z" transform="translate(-105.45 -235.06)"/><path class="cls-1" d="M453.59,252.1c0-4.36,0-8.14-.06-9.85-.06-1.95-.77-2.95-2.24-2.95h-2.36c-.29,0-.35-.18-.35-.41v-1.47c0-.29.06-.41.35-.41.53,0,2.36.18,7.31.18,3.3,0,8.79-.18,9.85-.18,4.89,0,8.78,1.47,11,3.6a9.94,9.94,0,0,1,3.07,6.72c0,7.37-3.36,10.14-10.91,11.79v.12a6,6,0,0,1,2.71,2.24c.71.77,4.89,6.78,5.37,7.55.29.59,4.07,6,5.19,6.78a6.81,6.81,0,0,0,4.25,1c.41,0,.47.24.47.47v1.3c0,.35-.06.53-.47.53s-2-.18-4.6-.18c-1.71,0-3.89.12-4.78.18a29,29,0,0,1-2.48-3.36c-.47-.71-3.66-6.31-4-6.78s-3.07-4.66-3.77-5.48c-1.53-1.83-2.95-3.42-6.37-3.42a8.43,8.43,0,0,0-1.95.18v3.3c0,3.48.06,10.08.12,11,.12,1.24.59,2.3,1.47,2.3h3.71c.41,0,.47.18.47.47v1.3c0,.41-.06.53-.65.53s-2.12-.18-7.72-.18c-5.37,0-6.72.18-7.37.18-.47,0-.47-.18-.47-.47v-1.36c0-.29,0-.47.29-.47h2.42c1.3,0,2.3-.41,2.3-2,.12-5.84.12-11.38.12-17Zm5.31,5.84a12,12,0,0,0,2.65.24c10.73,0,12.79-7.37,12.79-9.85a9,9,0,0,0-2.95-6.72c-2.3-1.83-4.89-2.71-9.79-2.71a3.75,3.75,0,0,0-2,.47,2.26,2.26,0,0,0-.71,1.89Z" transform="translate(-105.45 -235.06)"/><path class="cls-1" d="M493.86,244.85c0-3.48-1.77-5.42-3.89-5.48l-2.42-.06c-.29,0-.35-.24-.35-.41v-1.53c0-.24.06-.35.35-.35s.77.06,1.65.06,2.18.12,4.19.12,3.24-.12,4-.12a2,2,0,0,1,1.71.77c.3.35,11.73,15.21,12.38,16s10.61,13,12,14.92h.24v-7c0-5.25-.06-8.14-.18-11.08-.06-2.3-.35-8.08-.71-9.08a3.15,3.15,0,0,0-3.24-2.3h-1.89c-.24,0-.35-.12-.35-.41v-1.53a.31.31,0,0,1,.35-.35c.83,0,2.71.18,6.49.18,3.54,0,5-.18,5.72-.18.41,0,.47.18.47.41v1.47c0,.24-.12.41-.35.41h-1.59c-1.59,0-2.18,1-2.3,3.24-.24,4-.24,9.79-.24,13.62v22.05c0,.83-.06,1.42-.29,1.42-.71,0-1.24-.71-1.42-.94s-3.54-4.48-7.19-9.08c-4.13-5.13-8.43-10.55-8.79-10.91-.65-.59-11.5-14.21-11.85-14.68H496v13.09c0,5.48.47,15.09.59,16.27.24,2.3.59,3.42,2.18,3.42h1.77c.41,0,.47.18.47.53v1.3c0,.35-.06.47-.47.47-.59,0-4.13-.18-5.72-.18-1.24,0-5.31.18-5.9.18-.24,0-.29-.12-.29-.41v-1.53a.31.31,0,0,1,.35-.35h2c1.71,0,2.36-.71,2.65-3.6.12-1.12.24-7.84.24-18.34Z" transform="translate(-105.45 -235.06)"/><path class="cls-1" d="M561.61,278.57a10.74,10.74,0,0,1-7-7.9c-.71-2.65-.94-6.6-.94-14.33v-14c0-2.06-.41-3-2.24-3h-2.77c-.35,0-.41-.12-.41-.53v-1.3c0-.35.06-.47.53-.47s3.48.18,8.08.18,7.43-.18,8.08-.18c.47,0,.53.12.53.35v1.53c0,.29-.06.41-.47.41H562a2.65,2.65,0,0,0-2.83,2.42c-.06.53-.12,4.66-.12,7.66v3.89c0,3.12.24,10.61.29,12.5a14.14,14.14,0,0,0,1.89,7.49c2.18,3.18,6,4.25,9.37,4.25s6.78-1.12,8.84-3.24c2.3-2.48,3.07-6,3.07-10.38V251.27c0-4.48-.12-7.9-.29-9.37a2.63,2.63,0,0,0-2.65-2.59H577c-.35,0-.41-.18-.41-.47v-1.42c0-.29.06-.41.41-.41.59,0,3.3.18,7.25.18s6-.18,6.49-.18.59.24.59.41v1.3c0,.35-.06.59-.35.59h-2.42c-2.18,0-2.36,1.65-2.54,2.36s-.12,9-.12,9.79-.12,11.14-.29,13.44c-.35,4.83-1.65,8.55-5,11.38-2.36,2.18-6,3.54-11.08,3.54A21.91,21.91,0,0,1,561.61,278.57Z" transform="translate(-105.45 -235.06)"/><path class="cls-1" d="M599.71,244.85c0-3.48-1.77-5.42-3.89-5.48l-2.42-.06c-.29,0-.35-.24-.35-.41v-1.53c0-.24.06-.35.35-.35s.77.06,1.65.06,2.18.12,4.19.12,3.24-.12,4-.12a2,2,0,0,1,1.71.77c.29.35,11.73,15.21,12.38,16s10.61,13,12,14.92h.24v-7c0-5.25-.06-8.14-.18-11.08-.06-2.3-.35-8.08-.71-9.08a3.15,3.15,0,0,0-3.24-2.3h-1.89c-.24,0-.35-.12-.35-.41v-1.53a.31.31,0,0,1,.35-.35c.83,0,2.71.18,6.49.18,3.54,0,5-.18,5.72-.18.41,0,.47.18.47.41v1.47c0,.24-.12.41-.35.41h-1.59c-1.59,0-2.18,1-2.3,3.24-.24,4-.24,9.79-.24,13.62v22.05c0,.83-.06,1.42-.29,1.42-.71,0-1.24-.71-1.41-.94s-3.54-4.48-7.19-9.08c-4.13-5.13-8.43-10.55-8.79-10.91-.65-.59-11.5-14.21-11.85-14.68h-.35v13.09c0,5.48.47,15.09.59,16.27.24,2.3.59,3.42,2.18,3.42h1.77c.41,0,.47.18.47.53v1.3c0,.35-.06.47-.47.47-.59,0-4.13-.18-5.72-.18-1.24,0-5.31.18-5.9.18-.24,0-.29-.12-.29-.41v-1.53a.31.31,0,0,1,.35-.35h2c1.71,0,2.36-.71,2.65-3.6.12-1.12.24-7.84.24-18.34Z" transform="translate(-105.45 -235.06)"/><path class="cls-1" d="M646.88,254.22c0-1.42-.18-12-.24-12.91-.12-1.41-.71-2-2.95-2h-3.42c-.29,0-.47-.12-.47-.35v-1.59c0-.24.18-.35.41-.35.71,0,3.71.18,9.2.18,5.25,0,7.13-.18,8-.18a.37.37,0,0,1,.41.41v1.47c0,.29-.18.41-.47.41h-2.77c-1.18,0-2.06.47-2.06,1.65,0,.59-.18,13.62-.18,14.33v4.54c0,.59.18,14.21.18,14.86,0,1.83.88,2.12,2.77,2.12h2.42c.29,0,.47.12.47.41v1.53q0,.35-.53.35c-.71,0-3.07-.18-8.2-.18-5.6,0-8.14.18-8.79.18-.29,0-.47-.12-.47-.35v-1.59c0-.24.18-.35.47-.35h3.3c1.18,0,2.42-.18,2.65-1.71.12-.88.29-13.62.29-16.75Z" transform="translate(-105.45 -235.06)"/><path class="cls-1" d="M672,276c-4.19-2.54-8.67-8.9-8.67-17.51a22.9,22.9,0,0,1,5.48-14.68,19.29,19.29,0,0,1,16-7.49A19.86,19.86,0,0,1,698,241a22.71,22.71,0,0,1,8.08,17.63,21.51,21.51,0,0,1-4.42,12.91c-3.6,4.78-8.84,8.31-17,8.31A25.84,25.84,0,0,1,672,276Zm28.3-16.92c0-12.91-9.2-20.52-15.74-20.52-.88,0-4.89-.71-9.32,3.48-4,3.77-5.9,9.73-5.9,14.56,0,15.51,10.79,21,15.8,21C698.12,277.57,700.3,264.3,700.3,259.06Z" transform="translate(-105.45 -235.06)"/><path class="cls-1" d="M716.87,244.85c0-3.48-1.77-5.42-3.89-5.48l-2.42-.06c-.29,0-.35-.24-.35-.41v-1.53c0-.24.06-.35.35-.35s.77.06,1.65.06,2.18.12,4.19.12,3.24-.12,4-.12a2,2,0,0,1,1.71.77c.29.35,11.73,15.21,12.38,16s10.61,13,12,14.92h.24v-7c0-5.25-.06-8.14-.18-11.08-.06-2.3-.35-8.08-.71-9.08a3.15,3.15,0,0,0-3.24-2.3h-1.89c-.24,0-.35-.12-.35-.41v-1.53a.31.31,0,0,1,.35-.35c.83,0,2.71.18,6.49.18,3.54,0,5-.18,5.72-.18.41,0,.47.18.47.41v1.47c0,.24-.12.41-.35.41h-1.59c-1.59,0-2.18,1-2.3,3.24-.24,4-.24,9.79-.24,13.62v22.05c0,.83-.06,1.42-.29,1.42-.71,0-1.24-.71-1.42-.94s-3.54-4.48-7.19-9.08c-4.13-5.13-8.43-10.55-8.79-10.91-.65-.59-11.5-14.21-11.85-14.68H719v13.09c0,5.48.47,15.09.59,16.27.24,2.3.59,3.42,2.18,3.42h1.77c.41,0,.47.18.47.53v1.3c0,.35-.06.47-.47.47-.59,0-4.13-.18-5.72-.18-1.24,0-5.31.18-5.9.18-.24,0-.29-.12-.29-.41v-1.53a.31.31,0,0,1,.35-.35h2c1.71,0,2.36-.71,2.65-3.6.12-1.12.24-7.84.24-18.34Z" transform="translate(-105.45 -235.06)"/><path class="cls-1" d="M190.53,312.24c-.28-.21-.42-.28-.53-.28s-.23.16-.37.39-.26.28-.42.28-.26-.12-.21-.37c.09-.58.33-3.53.39-4.2,0-.14.07-.14.16-.14l.35,0c.09,0,.14,0,.14.19a4.56,4.56,0,0,0,.84,2.69,3.88,3.88,0,0,0,3.25,1.72,3,3,0,0,0,3.16-2.95c0-2.39-1.72-3.27-3.58-3.92a9,9,0,0,1-3.39-1.88,4.54,4.54,0,0,1-1.16-3.39,4.38,4.38,0,0,1,1.44-3,4.62,4.62,0,0,1,3.25-1.12,6.67,6.67,0,0,1,2.74.58c.21.12.33.09.44,0l.3-.28a.45.45,0,0,1,.3-.14c.12,0,.19.19.19.39,0,.81.3,3.18.33,3.69,0,.12,0,.16-.12.19l-.28.07a.1.1,0,0,1-.14-.07,5.63,5.63,0,0,0-1.44-2.58,3.24,3.24,0,0,0-2.53-1,2.63,2.63,0,0,0-2.81,2.72,2.83,2.83,0,0,0,.72,2,7.32,7.32,0,0,0,2.65,1.39c1.6.51,2.9.91,3.74,1.93a4.54,4.54,0,0,1,1,3.16c0,2.74-1.67,5.09-4.74,5.09A5.72,5.72,0,0,1,190.53,312.24Z" transform="translate(-105.45 -235.06)"/><path class="cls-1" d="M216.25,297.49h-.58a17,17,0,0,0-3.67.28c-1,.33-1.74,2-2.07,2.69a.17.17,0,0,1-.23.12l-.42-.12c-.07,0-.14,0-.09-.19.23-.84,1-3.83,1.09-4.09s.14-.37.23-.37a.41.41,0,0,1,.28.09l.3.21a1.92,1.92,0,0,0,1.32.39c1.23,0,2.21.14,4.39.14h1.11c2.53,0,3.53-.09,4.67-.14a2.29,2.29,0,0,0,1.21-.33l.44-.28a.5.5,0,0,1,.28-.09c.12,0,.16.07.21.37s.49,3.16.67,4.18c0,.12,0,.16-.14.19l-.37.09c-.09,0-.12,0-.19-.16-.19-.44-.88-2.23-1.65-2.6a14,14,0,0,0-4-.39h-.65v6.62c0,.33,0,6.83,0,7.22,0,.58.23.93.79.93h1.46c.21,0,.23.07.23.23V313c0,.12,0,.19-.23.19s-1-.07-3.25-.07-3.2.07-3.53.07-.21-.09-.21-.23v-.44c0-.16,0-.23.16-.23h1.58a.7.7,0,0,0,.77-.56c.07-.67.07-7.8.07-8.24Z" transform="translate(-105.45 -235.06)"/><path class="cls-1" d="M237.36,306.64c-.23.58-1.51,4.11-1.63,4.6,0,.16-.07.4-.07.51,0,.33.28.51.79.51h1.09c.16,0,.23,0,.23.16V313c0,.16-.07.21-.19.21-.33,0-1.28-.07-2.65-.07-1.7,0-2.21.07-2.53.07-.12,0-.16,0-.16-.19v-.56a.16.16,0,0,1,.19-.16h.81c.7,0,1-.33,1.35-1.07.16-.37,1.86-4.67,2.53-6.57.16-.46,2-5.46,2.25-6.08a.94.94,0,0,0,0-.79.65.65,0,0,1-.16-.3c0-.07,0-.16.21-.21a4.68,4.68,0,0,0,1.93-1.16c.12-.12.19-.21.3-.21s.19.14.26.4c.44,1.46,2.25,6.67,2.69,8.15.53,1.81,2,6.13,2.37,6.8a1.73,1.73,0,0,0,1.58,1h.77c.14,0,.19.07.19.16V313c0,.12-.07.16-.23.16-.42,0-.91-.07-2.79-.07s-2.74.07-3.27.07c-.12,0-.19-.07-.19-.21v-.53c0-.14.07-.16.21-.16h.58c.65,0,.86-.23.7-.88-.19-.84-1.14-3.81-1.46-4.74Zm5.43-.84c-.21-.7-2.09-6.5-2.21-6.85-.07-.16-.12-.33-.19-.33s-.19.16-.26.35-2.32,6.25-2.49,6.83Z" transform="translate(-105.45 -235.06)"/><path class="cls-1" d="M263.64,297.49h-.58a17,17,0,0,0-3.67.28c-1,.33-1.74,2-2.07,2.69a.17.17,0,0,1-.23.12l-.42-.12c-.07,0-.14,0-.09-.19.23-.84,1-3.83,1.09-4.09s.14-.37.23-.37a.41.41,0,0,1,.28.09l.3.21a1.92,1.92,0,0,0,1.32.39c1.23,0,2.21.14,4.39.14h1.11c2.53,0,3.53-.09,4.67-.14a2.29,2.29,0,0,0,1.21-.33l.44-.28a.49.49,0,0,1,.28-.09c.12,0,.16.07.21.37s.49,3.16.67,4.18c0,.12,0,.16-.14.19l-.37.09c-.09,0-.12,0-.19-.16-.19-.44-.88-2.23-1.65-2.6a14,14,0,0,0-4-.39h-.65v6.62c0,.33,0,6.83,0,7.22,0,.58.23.93.79.93H268c.21,0,.23.07.23.23V313c0,.12,0,.19-.23.19s-1-.07-3.25-.07-3.2.07-3.53.07-.21-.09-.21-.23v-.44c0-.16,0-.23.16-.23h1.58a.7.7,0,0,0,.77-.56c.07-.67.07-7.8.07-8.24Z" transform="translate(-105.45 -235.06)"/><path class="cls-1" d="M288,304.2c.19,0,2.67-.09,2.95-.14.67-.12.86-.3,1.07-1a5.51,5.51,0,0,0,.19-1.14.15.15,0,0,1,.16-.16l.58,0a.14.14,0,0,1,.14.19c-.07.39-.07,2.3-.07,2.65,0,.81.09,1.93.14,2.42a.16.16,0,0,1-.14.19l-.51.07c-.12,0-.16,0-.19-.21s-.19-.84-.26-1.09a1.09,1.09,0,0,0-1-.91c-1.09-.12-2.69-.12-3.07-.12v1.44c0,1.25,0,3.51,0,4,0,1.21.6,1.67,1.32,1.81a9.62,9.62,0,0,0,1.72.16c.39,0,1.56,0,2-.07a4.48,4.48,0,0,0,2-.81A21.42,21.42,0,0,0,297,309c.07-.12.14-.21.28-.14l.37.21c.12.07.12.14,0,.33l-1.23,3.41a.49.49,0,0,1-.51.35l-2,0c-1.39,0-3.65,0-7.27,0-.86,0-1.51,0-2,0l-1,0c-.14,0-.21,0-.21-.16v-.63c0-.09.07-.12.23-.12h.93c1.07,0,1.16-.16,1.16-1v-7.78c0-1.93,0-4.83-.07-5.06-.09-.74-.32-.91-1.18-.91h-.84c-.12,0-.19,0-.19-.16v-.63c0-.07,0-.12.16-.12.51,0,1.32.07,2.86.07h1l6.9,0c.37,0,.81,0,.93,0s.16,0,.19.12c.09.33,1.11,3.51,1.18,3.74s0,.16-.07.21l-.35.19c-.07,0-.16,0-.19-.07a19,19,0,0,0-2.32-2.65,3.6,3.6,0,0,0-1.77-.63L288,297.4Z" transform="translate(-105.45 -235.06)"/><path class="cls-1" d="M326.33,311.31a9.34,9.34,0,0,1-2.48-6.5,8.83,8.83,0,0,1,2.37-6.15,8.09,8.09,0,0,1,5.81-2.35,9.65,9.65,0,0,1,4.69,1.28c.3.19.42.16.46,0l.19-.67c0-.14.09-.14.3-.14s.26,0,.26.37.46,3.86.58,4.51c0,.12,0,.21-.09.23l-.35.09c-.12,0-.16,0-.23-.19a9,9,0,0,0-1.81-2.88,5.38,5.38,0,0,0-4-1.79c-4.16,0-5.83,3.69-5.81,7.08a9.3,9.3,0,0,0,2.23,6,5.16,5.16,0,0,0,4.46,2,7.1,7.1,0,0,0,5.74-2.95c.07-.12.12-.14.19-.07l.3.23c.07,0,.12.09,0,.21a8.32,8.32,0,0,1-6.92,3.9A8.09,8.09,0,0,1,326.33,311.31Z" transform="translate(-105.45 -235.06)"/><path class="cls-1" d="M353.3,311.94a8.12,8.12,0,0,1-3.41-6.9,9,9,0,0,1,2.16-5.78,7.6,7.6,0,0,1,6.29-2.95,7.82,7.82,0,0,1,5.2,1.83,9,9,0,0,1,3.18,6.94,8.47,8.47,0,0,1-1.74,5.09,7.89,7.89,0,0,1-6.69,3.27A10.19,10.19,0,0,1,353.3,311.94Zm11.15-6.66c0-5.09-3.62-8.08-6.2-8.08a4.46,4.46,0,0,0-3.67,1.37,8.28,8.28,0,0,0-2.32,5.74c0,6.11,4.25,8.27,6.22,8.27C363.59,312.56,364.45,307.34,364.45,305.27Z" transform="translate(-105.45 -235.06)"/><path class="cls-1" d="M388.33,309.38c.33-.35,2.65-5.9,2.83-6.2s2.69-5.78,2.76-6.25c0-.25.3-.28.53-.28,3.09,0,3.88-.07,4.13-.07s.14.07.14.16v.53c0,.14,0,.21-.19.21h-1c-.7,0-.77.42-.77,1s-.07,4-.07,5.55v1.62c0,1.16.07,4.92.07,5.39,0,.88.21,1.25.79,1.25h1.37c.14,0,.16.07.16.16V313c0,.14,0,.21-.21.21s-.7-.07-3.25-.07c-2.14,0-3,.07-3.34.07s-.19-.07-.19-.21v-.53c0-.12,0-.16.19-.16h1.58c.4,0,.6-.14.65-.84,0-.28,0-4.32,0-6V303.9c0-1.53,0-5.67-.07-5.88h0c-.23.3-3.53,7.62-3.65,7.85s-2.72,6.2-2.81,6.41-.28.56-.46.56-.25-.19-.35-.42L384,304.65c-.44-1.07-2.55-6.27-2.88-6.55-.09.33-.14,6.2-.14,6.48s0,5.18,0,6c.12,1.32.33,1.7,1.07,1.7h1.16c.14,0,.16.07.16.16V313c0,.09,0,.16-.21.16s-.88-.07-2.81-.07-2.79.07-3,.07-.21,0-.21-.21v-.56a.12.12,0,0,1,.14-.14h1.23c.88,0,1.09-.6,1.23-1.39.28-1.65.35-7.59.35-8s0-3.83,0-4.5,0-.86-1-.86h-1.42c-.14,0-.16-.07-.16-.16v-.6c0-.07,0-.14.16-.14s.86.07,2.83.07c1.09,0,1.7-.07,2-.07a.53.53,0,0,1,.6.39Z" transform="translate(-105.45 -235.06)"/><path class="cls-1" d="M420.29,309.38c.33-.35,2.65-5.9,2.83-6.2s2.69-5.78,2.76-6.25c0-.25.3-.28.53-.28,3.09,0,3.88-.07,4.13-.07s.14.07.14.16v.53c0,.14,0,.21-.19.21h-1c-.7,0-.77.42-.77,1s-.07,4-.07,5.55v1.62c0,1.16.07,4.92.07,5.39,0,.88.21,1.25.79,1.25h1.37c.14,0,.16.07.16.16V313c0,.14,0,.21-.21.21s-.7-.07-3.25-.07c-2.14,0-3,.07-3.34.07s-.19-.07-.19-.21v-.53c0-.12,0-.16.19-.16h1.58c.4,0,.6-.14.65-.84,0-.28,0-4.32,0-6V303.9c0-1.53,0-5.67-.07-5.88h0c-.23.3-3.53,7.62-3.65,7.85s-2.72,6.2-2.81,6.41-.28.56-.46.56-.25-.19-.35-.42L416,304.65c-.44-1.07-2.55-6.27-2.88-6.55-.09.33-.14,6.2-.14,6.48s0,5.18,0,6c.12,1.32.33,1.7,1.07,1.7h1.16c.14,0,.16.07.16.16V313c0,.09,0,.16-.21.16s-.88-.07-2.81-.07-2.79.07-3,.07-.21,0-.21-.21v-.56a.12.12,0,0,1,.14-.14h1.23c.88,0,1.09-.6,1.23-1.39.28-1.65.35-7.59.35-8s0-3.83,0-4.5,0-.86-1-.86h-1.42c-.14,0-.16-.07-.16-.16v-.6c0-.07,0-.14.16-.14s.86.07,2.83.07c1.09,0,1.7-.07,2-.07a.53.53,0,0,1,.6.39Z" transform="translate(-105.45 -235.06)"/><path class="cls-1" d="M446.41,313a4.23,4.23,0,0,1-2.76-3.11,24.31,24.31,0,0,1-.37-5.64v-5.53c0-.81-.16-1.18-.88-1.18H441.3c-.14,0-.16,0-.16-.21v-.51c0-.14,0-.19.21-.19s1.37.07,3.18.07,2.93-.07,3.18-.07.21,0,.21.14v.6c0,.12,0,.16-.19.16h-1.16a1,1,0,0,0-1.11,1c0,.21,0,1.83,0,3V303c0,1.23.09,4.18.12,4.92a5.57,5.57,0,0,0,.74,2.95,4.33,4.33,0,0,0,3.69,1.67,5,5,0,0,0,3.48-1.28,5.78,5.78,0,0,0,1.21-4.09v-5c0-1.77,0-3.11-.12-3.69a1,1,0,0,0-1-1h-1c-.14,0-.16-.07-.16-.19v-.56c0-.12,0-.16.16-.16s1.3.07,2.86.07,2.34-.07,2.55-.07.23.09.23.16v.51c0,.14,0,.23-.14.23h-1c-.86,0-.93.65-1,.93s0,3.53,0,3.86,0,4.39-.12,5.29a6,6,0,0,1-2,4.48,6.21,6.21,0,0,1-4.37,1.39A8.62,8.62,0,0,1,446.41,313Z" transform="translate(-105.45 -235.06)"/><path class="cls-1" d="M470.59,299.67c0-1.37-.7-2.14-1.53-2.16l-1,0c-.12,0-.14-.09-.14-.16v-.6c0-.09,0-.14.14-.14s.3,0,.65,0,.86,0,1.65,0,1.28,0,1.56,0a.81.81,0,0,1,.67.3c.12.14,4.62,6,4.88,6.32s4.18,5.13,4.74,5.88h.09v-2.76c0-2.07,0-3.21-.07-4.37a27.17,27.17,0,0,0-.28-3.58,1.24,1.24,0,0,0-1.28-.91H480c-.09,0-.14,0-.14-.16v-.6a.12.12,0,0,1,.14-.14c.33,0,1.07.07,2.55.07s2-.07,2.25-.07.19.07.19.16v.58c0,.09,0,.16-.14.16h-.63c-.63,0-.86.39-.91,1.28-.09,1.56-.09,3.86-.09,5.36v8.69c0,.33,0,.56-.12.56a.8.8,0,0,1-.56-.37s-1.39-1.77-2.83-3.58c-1.63-2-3.32-4.16-3.46-4.3s-4.53-5.6-4.67-5.78h-.14v5.16c0,2.16.19,5.95.23,6.41.09.91.23,1.35.86,1.35h.7c.16,0,.19.07.19.21V313c0,.14,0,.19-.19.19s-1.63-.07-2.25-.07-2.09.07-2.32.07-.12,0-.12-.16v-.6a.12.12,0,0,1,.14-.14h.79c.67,0,.93-.28,1-1.42,0-.44.09-3.09.09-7.22Z" transform="translate(-105.45 -235.06)"/><path class="cls-1" d="M498.35,303.37c0-.56-.07-4.74-.09-5.09,0-.56-.28-.79-1.16-.79h-1.35c-.12,0-.19,0-.19-.14v-.63c0-.09.07-.14.16-.14.28,0,1.46.07,3.62.07s2.81-.07,3.13-.07a.15.15,0,0,1,.16.16v.58c0,.12-.07.16-.19.16h-1.09c-.46,0-.81.19-.81.65,0,.23-.07,5.36-.07,5.64v1.79c0,.23.07,5.6.07,5.85,0,.72.35.84,1.09.84h1c.12,0,.19,0,.19.16v.6c0,.09-.07.14-.21.14s-1.21-.07-3.23-.07c-2.21,0-3.21.07-3.46.07s-.19,0-.19-.14v-.63c0-.09.07-.14.19-.14h1.3c.46,0,1-.07,1-.67,0-.35.12-5.36.12-6.6Z" transform="translate(-105.45 -235.06)"/><path class="cls-1" d="M520,297.49h-.58a17,17,0,0,0-3.67.28c-1,.33-1.74,2-2.07,2.69a.17.17,0,0,1-.23.12l-.42-.12c-.07,0-.14,0-.09-.19.23-.84,1-3.83,1.09-4.09s.14-.37.23-.37a.41.41,0,0,1,.28.09l.3.21a1.92,1.92,0,0,0,1.32.39c1.23,0,2.21.14,4.39.14h1.11c2.53,0,3.53-.09,4.67-.14a2.29,2.29,0,0,0,1.21-.33l.44-.28a.5.5,0,0,1,.28-.09c.12,0,.16.07.21.37s.49,3.16.67,4.18c0,.12,0,.16-.14.19l-.37.09c-.09,0-.12,0-.19-.16-.19-.44-.88-2.23-1.65-2.6a14,14,0,0,0-4-.39h-.65v6.62c0,.33,0,6.83,0,7.22,0,.58.23.93.79.93h1.46c.21,0,.23.07.23.23V313c0,.12,0,.19-.23.19s-1-.07-3.25-.07-3.21.07-3.53.07-.21-.09-.21-.23v-.44c0-.16,0-.23.16-.23h1.58a.7.7,0,0,0,.77-.56c.07-.67.07-7.8.07-8.24Z" transform="translate(-105.45 -235.06)"/><path class="cls-1" d="M547.64,308.78c0,.91.07,2.41.09,2.67.07.74.42.81,1,.81h.91c.16,0,.16.07.16.16V313c0,.14,0,.21-.16.21s-1.18-.07-3.13-.07-2.81.07-3.07.07c-.09,0-.14-.07-.14-.19v-.56c0-.09,0-.16.16-.16h1.14c.6,0,.79-.23.81-.58s.07-2.16.07-4.32V306c-.3-.6-4.16-7.15-4.83-8a1.77,1.77,0,0,0-1.21-.56h-.58c-.14,0-.16-.07-.16-.16v-.6c0-.09,0-.14.16-.14s1.3.07,2.72.07c2.39,0,3.23-.07,3.46-.07s.16,0,.16.12v.58c0,.12,0,.21-.16.21h-.77c-.7,0-.79.21-.7.77.07.37,2.93,5.41,3.62,6.73.86-1.35,4.11-6.18,4.2-6.6s.21-.91-.77-.91H550c-.14,0-.16-.07-.16-.21v-.56c0-.09,0-.14.16-.14s1.18.07,2.74.07c1.37,0,1.88-.07,2.09-.07s.19,0,.19.14v.56c0,.14,0,.21-.19.21h-.58a1.66,1.66,0,0,0-1.14.51c-.46.44-4.62,6.46-5.5,7.73Z" transform="translate(-105.45 -235.06)"/><path class="cls-1" d="M582.37,311.31a9.34,9.34,0,0,1-2.48-6.5,8.83,8.83,0,0,1,2.37-6.15,8.09,8.09,0,0,1,5.81-2.35,9.65,9.65,0,0,1,4.69,1.28c.3.19.42.16.46,0l.19-.67c0-.14.09-.14.3-.14s.26,0,.26.37.46,3.86.58,4.51c0,.12,0,.21-.09.23l-.35.09c-.12,0-.16,0-.23-.19a9,9,0,0,0-1.81-2.88,5.38,5.38,0,0,0-4-1.79c-4.16,0-5.83,3.69-5.81,7.08a9.3,9.3,0,0,0,2.23,6,5.16,5.16,0,0,0,4.46,2,7.1,7.1,0,0,0,5.74-2.95c.07-.12.12-.14.19-.07l.3.23c.07,0,.12.09,0,.21a8.32,8.32,0,0,1-6.92,3.9A8.09,8.09,0,0,1,582.37,311.31Z" transform="translate(-105.45 -235.06)"/><path class="cls-1" d="M609.34,311.94a8.12,8.12,0,0,1-3.41-6.9,9,9,0,0,1,2.16-5.78,7.6,7.6,0,0,1,6.29-2.95,7.82,7.82,0,0,1,5.2,1.83,9,9,0,0,1,3.18,6.94,8.47,8.47,0,0,1-1.74,5.09,7.89,7.89,0,0,1-6.69,3.27A10.19,10.19,0,0,1,609.34,311.94Zm11.15-6.66c0-5.09-3.62-8.08-6.2-8.08a4.46,4.46,0,0,0-3.67,1.37,8.28,8.28,0,0,0-2.32,5.74c0,6.11,4.25,8.27,6.22,8.27C619.62,312.56,620.48,307.34,620.48,305.27Z" transform="translate(-105.45 -235.06)"/><path class="cls-1" d="M636.3,302.69c0-1.49,0-3.95-.07-4.37,0-.6-.16-.84-.86-.84h-1.09c-.14,0-.16-.12-.16-.23v-.51c0-.12,0-.16.16-.16s1.09.07,3,.07c2.25,0,3.23-.07,3.44-.07s.21.07.21.19v.53c0,.12,0,.19-.23.19h-1.39c-.72,0-.81.23-.81.91,0,.3-.07,3.81-.07,5.43v2c0,.4,0,5.41.07,6.36.51,0,5.11.09,5.83,0,1.37-.21,2.76-3,3.09-3.9,0-.09.09-.14.19-.09l.37.14c.07,0,.07.07,0,.21s-1,4-1.14,4.62c-.3,0-2.11,0-4.18,0s-4.34,0-5.6,0c-.91,0-1.58,0-2.07,0l-.91,0c-.16,0-.19,0-.19-.16v-.58c0-.12,0-.16.16-.16h1.11c.86,0,1-.33,1-.63s.07-6.22.07-7.64Z" transform="translate(-105.45 -235.06)"/><path class="cls-1" d="M660.16,302.69c0-1.49,0-3.95-.07-4.37,0-.6-.16-.84-.86-.84h-1.09c-.14,0-.16-.12-.16-.23v-.51c0-.12,0-.16.16-.16s1.09.07,3,.07c2.25,0,3.23-.07,3.44-.07s.21.07.21.19v.53c0,.12,0,.19-.23.19h-1.39c-.72,0-.81.23-.81.91,0,.3-.07,3.81-.07,5.43v2c0,.4,0,5.41.07,6.36.51,0,5.11.09,5.83,0,1.37-.21,2.76-3,3.09-3.9,0-.09.09-.14.19-.09l.37.14c.07,0,.07.07,0,.21s-1,4-1.14,4.62c-.3,0-2.11,0-4.18,0s-4.34,0-5.6,0c-.91,0-1.58,0-2.07,0l-.91,0c-.16,0-.19,0-.19-.16v-.58c0-.12,0-.16.16-.16h1.11c.86,0,1-.33,1-.63s.07-6.22.07-7.64Z" transform="translate(-105.45 -235.06)"/><path class="cls-1" d="M686.29,304.2c.19,0,2.67-.09,2.95-.14.67-.12.86-.3,1.07-1a5.48,5.48,0,0,0,.19-1.14.15.15,0,0,1,.16-.16l.58,0a.14.14,0,0,1,.14.19c-.07.39-.07,2.3-.07,2.65,0,.81.09,1.93.14,2.42a.16.16,0,0,1-.14.19l-.51.07c-.12,0-.16,0-.19-.21s-.19-.84-.25-1.09a1.09,1.09,0,0,0-1-.91c-1.09-.12-2.69-.12-3.07-.12v1.44c0,1.25,0,3.51,0,4,0,1.21.6,1.67,1.32,1.81a9.62,9.62,0,0,0,1.72.16c.39,0,1.56,0,2-.07a4.49,4.49,0,0,0,2-.81,21.46,21.46,0,0,0,1.9-2.44c.07-.12.14-.21.28-.14l.37.21c.12.07.12.14,0,.33l-1.23,3.41a.49.49,0,0,1-.51.35l-2,0c-1.39,0-3.65,0-7.27,0-.86,0-1.51,0-2,0l-1,0c-.14,0-.21,0-.21-.16v-.63c0-.09.07-.12.23-.12H683c1.07,0,1.16-.16,1.16-1v-7.78c0-1.93,0-4.83-.07-5.06-.09-.74-.33-.91-1.18-.91h-.84c-.12,0-.19,0-.19-.16v-.63c0-.07,0-.12.16-.12.51,0,1.32.07,2.86.07h1l6.9,0c.37,0,.81,0,.93,0s.16,0,.19.12c.09.33,1.11,3.51,1.18,3.74s0,.16-.07.21l-.35.19c-.07,0-.16,0-.19-.07a18.94,18.94,0,0,0-2.32-2.65,3.59,3.59,0,0,0-1.76-.63l-4.13-.09Z" transform="translate(-105.45 -235.06)"/><path class="cls-1" d="M720.21,308c0-.84-.26-1.07-1-1.07h-1c-.12,0-.16,0-.16-.14v-.58c0-.14,0-.19.14-.19.33,0,1.37.07,3,.07s2.42-.07,2.74-.07c.16,0,.19.07.19.16v.56c0,.09,0,.19-.16.19h-.91c-.42,0-.72.16-.72.88v3.07c0,.33.09.56.09.74s-.14.28-.37.37a13.11,13.11,0,0,1-6.34,1.49,8.92,8.92,0,0,1-6.5-2.65,9,9,0,0,1-2.14-6.39,8,8,0,0,1,2.63-5.9,9.55,9.55,0,0,1,6.53-2.21,8.22,8.22,0,0,1,4.58,1.35c.26.21.4.16.53,0l.35-.42c.09-.09.19-.21.33-.21s.21.12.21.28l.07,4.44c0,.12,0,.21-.12.21l-.42,0c-.09,0-.16-.07-.19-.19a7.77,7.77,0,0,0-1.39-2.74,5.43,5.43,0,0,0-4.23-1.9,5.59,5.59,0,0,0-4.44,1.88,7.81,7.81,0,0,0-2,5.34c0,2.74.77,5.13,2.21,6.5a5.78,5.78,0,0,0,4.09,1.65,7.45,7.45,0,0,0,3.81-.79c.53-.33.63-.84.63-2Z" transform="translate(-105.45 -235.06)"/><path class="cls-1" d="M739.68,304.2c.19,0,2.67-.09,2.95-.14.67-.12.86-.3,1.07-1a5.48,5.48,0,0,0,.19-1.14.15.15,0,0,1,.16-.16l.58,0a.14.14,0,0,1,.14.19c-.07.39-.07,2.3-.07,2.65,0,.81.09,1.93.14,2.42a.16.16,0,0,1-.14.19l-.51.07c-.12,0-.16,0-.19-.21s-.19-.84-.25-1.09a1.09,1.09,0,0,0-1-.91c-1.09-.12-2.69-.12-3.07-.12v1.44c0,1.25,0,3.51,0,4,0,1.21.6,1.67,1.32,1.81a9.62,9.62,0,0,0,1.72.16c.39,0,1.56,0,2-.07a4.49,4.49,0,0,0,2-.81,21.47,21.47,0,0,0,1.9-2.44c.07-.12.14-.21.28-.14l.37.21c.12.07.12.14,0,.33l-1.23,3.41a.49.49,0,0,1-.51.35l-2,0c-1.39,0-3.65,0-7.27,0-.86,0-1.51,0-2,0l-1,0c-.14,0-.21,0-.21-.16v-.63c0-.09.07-.12.23-.12h.93c1.07,0,1.16-.16,1.16-1v-7.78c0-1.93,0-4.83-.07-5.06-.09-.74-.33-.91-1.18-.91h-.84c-.12,0-.19,0-.19-.16v-.63c0-.07,0-.12.16-.12.51,0,1.32.07,2.86.07h1l6.9,0c.37,0,.81,0,.93,0s.16,0,.19.12c.09.33,1.11,3.51,1.18,3.74s0,.16-.07.21l-.35.19c-.07,0-.16,0-.19-.07a19,19,0,0,0-2.32-2.65,3.59,3.59,0,0,0-1.76-.63l-4.13-.09Z" transform="translate(-105.45 -235.06)"/><path class="cls-2" d="M136.55,312.47c-30.25,0-30.6-24.09-30.6-24.34V235.89h20.93v44.85c0,7.12,3.8,11.71,9.68,11.71s9.68-4.6,9.68-11.71V235.89h20.88l0,52.24C167.15,288.37,166.8,312.47,136.55,312.47Z" transform="translate(-105.45 -235.06)"/><path class="cls-1" d="M166.61,236.39l0,51.74s0,23.84-30.1,23.84-30.1-23.84-30.1-23.84V236.39h19.93v44.35c0,6.75,3.43,12.21,10.18,12.21s10.18-5.47,10.18-12.21V236.39h19.88m1-1H145.73v45.35c0,8.27-4.74,11.21-9.18,11.21s-9.18-2.95-9.18-11.21V235.39H105.45v52.74a25.46,25.46,0,0,0,3.92,12.45c6.46,10.24,18.35,12.38,27.18,12.38s20.72-2.15,27.19-12.38a25.46,25.46,0,0,0,3.92-12.45l0-51.74v-1Z" transform="translate(-105.45 -235.06)"/><path class="cls-1" d="M118.79,285.47c1.67-.43,6.14-1.62,10.52-3.06,10.43-3.45,11.6-5.38,11.31-7-.32-1.73-2.53-1.73-3.36-1.73-1,0-2.16.1-3.52.22-1.63.14-3.48.3-5.34.3-6.63,0-10.16-2.11-11.46-6.84-.91-3.34,0-6.83,2.69-10.37,7.35-9.62,26.4-17.2,43.77-17.52l-1.64,14.66c-4.61.47-19.33,2.2-21.7,5.19-.63.79-1.4,2-.88,3s1.94,1.24,3.39,1.24c1,0,2.25-.09,3.57-.18,1.62-.12,3.45-.25,5.27-.25,5,0,8.07,1,9.72,3.17s1.88,5.75.58,10.57c-1.69,4.23-5.91,10.22-16.4,14.89l-.51.23a136,136,0,0,1-27.68,9.42Z" transform="translate(-105.45 -235.06)"/><path class="cls-3" d="M162.29,240.54l-1.43,12.72c-6.72.71-19.15,2.42-21.58,5.48-.46.58-1.85,2.33-1,4.09s3.18,1.8,4.29,1.8,2.31-.09,3.64-.19c1.6-.11,3.41-.25,5.19-.25,4.58,0,7.5.91,8.93,2.77s1.62,5.17.43,9.64c-2.36,5.86-7.69,10.66-15.86,14.29l-.52.23a136.24,136.24,0,0,1-26.13,9.05l1.45-13.94c2-.53,6-1.6,9.91-2.91,9.26-3.06,12.51-5.25,12-8.09-.31-1.69-1.77-2.55-4.34-2.55-1,0-2.23.1-3.61.23-1.61.14-3.44.3-5.25.3-6.1,0-9.34-1.88-10.49-6.1-.83-3,0-6.23,2.52-9.5,7-9.2,25.07-16.49,41.85-17.09m2.24-2c-25.11,0-52.46,14.81-48.55,29.16,1.73,6.33,7.18,7.58,12.42,7.58,3.4,0,6.72-.53,8.85-.53,1.36,0,2.25.21,2.38.91.65,3.48-21.77,9-21.77,9L116,302.73A132.26,132.26,0,0,0,145.23,293c1.55-.74,13.31-5.31,17.43-15.71,3.52-13-4-15-11.26-15-3.35,0-6.66.43-8.84.43-2.37,0-3.41-.51-1.72-2.65,2.4-3,21.82-4.9,21.82-4.9l1.86-16.58Z" transform="translate(-105.45 -235.06)"/><path class="cls-1" d="M164.53,238.5l-1.86,16.58S143.25,257,140.85,260c-1.69,2.14-.65,2.65,1.72,2.65,2.18,0,5.49-.43,8.84-.43,7.29,0,14.77,2,11.26,15-4.12,10.4-15.89,15-17.43,15.71A132.26,132.26,0,0,1,116,302.73l1.88-18.06s22.41-5.56,21.77-9c-.13-.7-1-.91-2.38-.91-2.14,0-5.45.53-8.85.53-5.24,0-10.69-1.25-12.42-7.58-3.92-14.35,23.44-29.16,48.55-29.16m1.12-1h-1.12c-18.52,0-38.5,7.87-46.48,18.31-3.06,4-4.11,8.19-3,12.11,2.27,8.31,10.64,8.31,13.38,8.31,1.94,0,3.84-.17,5.51-.31,1.31-.11,2.44-.21,3.34-.21a4.07,4.07,0,0,1,1.35.15c-.75,1.62-10.19,5.16-21,7.84l-.68.17-.07.7L115,302.62l-.14,1.32,1.31-.24a134.64,134.64,0,0,0,29.5-9.85l.47-.21c6.16-2.74,14.19-7.74,17.47-16l0-.05v-.05c1.5-5.55,1.2-9.6-.91-12.36-2.71-3.54-7.75-4-11.31-4-1.89,0-3.76.13-5.41.25-1.34.1-2.49.18-3.43.18a5.46,5.46,0,0,1-1.51-.14,4,4,0,0,1,.57-.89c1.47-1.86,13.24-3.76,21.13-4.52l.81-.08.09-.81,1.86-16.58.12-1.11Z" transform="translate(-105.45 -235.06)"/><path class="cls-1" d="M193.49,276.75c-.71-.53-1.06-.71-1.36-.71s-.59.41-.94,1-.65.71-1.06.71-.65-.29-.53-.94c.24-1.47.83-9,1-10.67.06-.35.18-.35.41-.35l.88.06c.24,0,.35.12.35.47a11.58,11.58,0,0,0,2.12,6.84,9.85,9.85,0,0,0,8.25,4.36c3.54,0,8-2.18,8-7.49,0-6.07-4.36-8.31-9.08-10-1.83-.65-6.07-2.12-8.61-4.78-1.95-1.95-2.95-4.72-2.95-8.61a11.13,11.13,0,0,1,3.66-7.55,11.74,11.74,0,0,1,8.25-2.83,17,17,0,0,1,7,1.47c.53.29.83.24,1.12-.06l.77-.71a1.14,1.14,0,0,1,.77-.35c.29,0,.47.47.47,1,0,2.06.77,8.08.83,9.37,0,.29-.06.41-.29.47l-.71.18a.25.25,0,0,1-.35-.18,14.3,14.3,0,0,0-3.66-6.54,8.22,8.22,0,0,0-6.43-2.54,6.68,6.68,0,0,0-7.13,6.9,7.17,7.17,0,0,0,1.83,5.13c1.71,1.71,5,3,6.72,3.54,4.07,1.3,7.37,2.3,9.49,4.89,1.53,1.83,2.59,4.13,2.59,8,0,7-4.25,12.91-12,12.91A14.51,14.51,0,0,1,193.49,276.75Z" transform="translate(-105.45 -235.06)"/><path class="cls-1" d="M229.45,276c-4.19-2.54-8.67-8.9-8.67-17.51a22.9,22.9,0,0,1,5.48-14.68,19.29,19.29,0,0,1,16-7.49A19.86,19.86,0,0,1,255.46,241a22.71,22.71,0,0,1,8.08,17.63,21.51,21.51,0,0,1-4.42,12.91c-3.6,4.78-8.84,8.31-17,8.31A25.85,25.85,0,0,1,229.45,276Zm28.3-16.92c0-12.91-9.2-20.52-15.74-20.52-.88,0-4.89-.71-9.32,3.48-4,3.77-5.9,9.73-5.9,14.56,0,15.51,10.79,21,15.8,21C255.57,277.57,257.75,264.3,257.75,259.06Z" transform="translate(-105.45 -235.06)"/><path class="cls-1" d="M280.81,278.57a10.74,10.74,0,0,1-7-7.9c-.71-2.65-.94-6.6-.94-14.33v-14c0-2.06-.41-3-2.24-3h-2.77c-.35,0-.41-.12-.41-.53v-1.3c0-.35.06-.47.53-.47s3.48.18,8.08.18,7.43-.18,8.08-.18c.47,0,.53.12.53.35v1.53c0,.29-.06.41-.47.41h-2.95a2.66,2.66,0,0,0-2.83,2.42c-.06.53-.12,4.66-.12,7.66v3.89c0,3.12.24,10.61.29,12.5a14.14,14.14,0,0,0,1.89,7.49c2.18,3.18,6,4.25,9.37,4.25s6.78-1.12,8.84-3.24c2.3-2.48,3.07-6,3.07-10.38V251.27c0-4.48-.12-7.9-.29-9.37a2.63,2.63,0,0,0-2.65-2.59H296.2c-.35,0-.41-.18-.41-.47v-1.42c0-.29.06-.41.41-.41.59,0,3.3.18,7.25.18s6-.18,6.49-.18.59.24.59.41v1.3c0,.35-.06.59-.35.59h-2.42c-2.18,0-2.36,1.65-2.53,2.36s-.12,9-.12,9.79-.12,11.14-.29,13.44c-.35,4.83-1.65,8.55-5,11.38-2.36,2.18-6,3.54-11.08,3.54A21.91,21.91,0,0,1,280.81,278.57Z" transform="translate(-105.45 -235.06)"/><path class="cls-1" d="M330.82,239.31h-1.47c-1.89,0-7,0-9.32.71-2.65.83-4.42,5-5.25,6.84a.44.44,0,0,1-.59.3l-1.06-.3c-.18-.06-.35-.12-.24-.47.59-2.12,2.65-9.73,2.77-10.38s.35-.94.59-.94a1,1,0,0,1,.71.24l.77.53a4.87,4.87,0,0,0,3.36,1c3.12.12,5.6.35,11.14.35h2.83c6.43,0,9-.24,11.85-.35A5.8,5.8,0,0,0,350,236l1.12-.71a1.25,1.25,0,0,1,.71-.24c.3,0,.41.18.53.94s1.24,8,1.71,10.61c.06.29-.06.41-.35.47l-.94.24c-.24.06-.29,0-.47-.41-.47-1.12-2.24-5.66-4.19-6.6-1.77-.88-7.31-1-10.2-1h-1.65v16.8c0,.83,0,17.33.06,18.34.12,1.47.59,2.36,2,2.36H342c.53,0,.59.18.59.59v1.24c0,.3-.06.47-.59.47s-2.48-.18-8.25-.18-8.14.18-9,.18c-.47,0-.53-.24-.53-.59v-1.12c0-.41.06-.59.41-.59h4a1.77,1.77,0,0,0,1.95-1.42c.18-1.71.18-19.81.18-20.93Z" transform="translate(-105.45 -235.06)"/><path class="cls-1" d="M363.19,255.7c0-3.66-.12-11.62-.12-12.56,0-3-.41-3.83-2.59-3.83h-2.77c-.29,0-.35-.12-.35-.47v-1.42c0-.29.18-.41.47-.41,1.18,0,3.07.18,8.25.18,4.6,0,6.72-.18,7.84-.18.41,0,.59.06.59.29v1.53c0,.35-.12.47-.47.47h-3c-2,0-2.3,1-2.3,3.36,0,.83-.12,8.61-.12,11.91v1c0,.29.18.47.71.47h21.82c.88,0,1.18-.12,1.18-.88v-.59c0-3.36-.18-11.56-.18-12.26,0-1.89-.24-3-1.95-3h-3.07c-.29,0-.41-.12-.41-.41v-1.53c0-.24.06-.35.35-.35,1.24,0,3.77.18,7.78.18s6.43-.18,7.55-.18c.41,0,.47.12.47.47v1.42c0,.35-.12.41-.47.41h-2.65c-1.71,0-1.89,1-1.89,3.12,0,.83-.12,10.79-.12,13v2c0,1.89.12,13.09.18,16.45,0,2.12.59,2.95,2.36,2.95h2.59c.41,0,.53.12.53.41v1.41c0,.35-.12.47-.47.47-1.12,0-3.12-.18-7.43-.18-5.13,0-7,.18-8.79.18-.24,0-.35-.18-.35-.41v-1.47c0-.29.12-.41.47-.41h3.71c1.42,0,1.59-1.12,1.59-2.71.06-2.77.18-12.26.18-14.39v-.83c0-.65-.29-.71-1.3-.71H369.44c-.65,0-.83.18-.83.59V260c0,1.59.06,10.67.12,14.8.06,1.42.65,2,1.89,2h2.89c.35,0,.47.12.47.41v1.47c0,.29-.12.41-.47.41-1.12,0-3.18-.18-7.43-.18-5.07,0-6.84.18-8.2.18-.29,0-.41-.12-.41-.41v-1.53c0-.24.18-.35.41-.35h3.48c1.47,0,1.65-1.42,1.65-2.83.06-2.77.18-14.21.18-15.74Z" transform="translate(-105.45 -235.06)"/><path class="cls-1" d="M420.21,256.34c.47,0,6.78-.24,7.49-.35,1.71-.29,2.18-.77,2.71-2.59a14,14,0,0,0,.47-2.89.37.37,0,0,1,.41-.41l1.47.06a.35.35,0,0,1,.35.47c-.18,1-.18,5.84-.18,6.72,0,2.06.24,4.89.35,6.13a.41.41,0,0,1-.35.47l-1.3.18c-.29.06-.41-.12-.47-.53-.12-.77-.47-2.12-.65-2.77a2.77,2.77,0,0,0-2.54-2.3c-2.77-.29-6.84-.29-7.78-.29v3.66c0,3.18.12,8.9.12,10.08.06,3.07,1.53,4.25,3.36,4.6a24.35,24.35,0,0,0,4.36.41c1,0,4-.06,5.19-.18a11.37,11.37,0,0,0,5.13-2.06,54.17,54.17,0,0,0,4.83-6.19c.18-.29.35-.53.71-.35l.94.53c.29.18.29.35.12.83l-3.12,8.67a1.25,1.25,0,0,1-1.3.88c-.3,0-1.59-.06-5.13-.12s-9.26-.06-18.45-.06c-2.18,0-3.83.06-5,.06s-2,.12-2.54.12c-.35,0-.53-.12-.53-.41V277.1c0-.24.18-.29.59-.29h2.36c2.71,0,2.95-.41,2.95-2.59V254.46c0-4.89-.12-12.26-.18-12.85-.24-1.89-.83-2.3-3-2.3h-2.12c-.29,0-.47-.06-.47-.41V237.3c0-.18.12-.29.41-.29,1.3,0,3.36.18,7.25.18h2.59c5.84,0,11.67-.06,17.51-.06.94,0,2.06-.12,2.36-.12s.41.12.47.29c.24.83,2.83,8.9,3,9.49.06.24.06.41-.18.53l-.88.47c-.18.12-.41-.06-.47-.18s-4.48-5.84-5.9-6.72a9.12,9.12,0,0,0-4.48-1.59l-10.5-.24Z" transform="translate(-105.45 -235.06)"/><path class="cls-1" d="M453.59,252.1c0-4.36,0-8.14-.06-9.85-.06-1.95-.77-2.95-2.24-2.95h-2.36c-.29,0-.35-.18-.35-.41v-1.47c0-.29.06-.41.35-.41.53,0,2.36.18,7.31.18,3.3,0,8.79-.18,9.85-.18,4.89,0,8.78,1.47,11,3.6a9.94,9.94,0,0,1,3.07,6.72c0,7.37-3.36,10.14-10.91,11.79v.12a6,6,0,0,1,2.71,2.24c.71.77,4.89,6.78,5.37,7.55.29.59,4.07,6,5.19,6.78a6.81,6.81,0,0,0,4.25,1c.41,0,.47.24.47.47v1.3c0,.35-.06.53-.47.53s-2-.18-4.6-.18c-1.71,0-3.89.12-4.78.18a29,29,0,0,1-2.48-3.36c-.47-.71-3.66-6.31-4-6.78s-3.07-4.66-3.77-5.48c-1.53-1.83-2.95-3.42-6.37-3.42a8.43,8.43,0,0,0-1.95.18v3.3c0,3.48.06,10.08.12,11,.12,1.24.59,2.3,1.47,2.3h3.71c.41,0,.47.18.47.47v1.3c0,.41-.06.53-.65.53s-2.12-.18-7.72-.18c-5.37,0-6.72.18-7.37.18-.47,0-.47-.18-.47-.47v-1.36c0-.29,0-.47.29-.47h2.42c1.3,0,2.3-.41,2.3-2,.12-5.84.12-11.38.12-17Zm5.31,5.84a12,12,0,0,0,2.65.24c10.73,0,12.79-7.37,12.79-9.85a9,9,0,0,0-2.95-6.72c-2.3-1.83-4.89-2.71-9.79-2.71a3.75,3.75,0,0,0-2,.47,2.26,2.26,0,0,0-.71,1.89Z" transform="translate(-105.45 -235.06)"/><path class="cls-1" d="M493.86,244.85c0-3.48-1.77-5.42-3.89-5.48l-2.42-.06c-.29,0-.35-.24-.35-.41v-1.53c0-.24.06-.35.35-.35s.77.06,1.65.06,2.18.12,4.19.12,3.24-.12,4-.12a2,2,0,0,1,1.71.77c.3.35,11.73,15.21,12.38,16s10.61,13,12,14.92h.24v-7c0-5.25-.06-8.14-.18-11.08-.06-2.3-.35-8.08-.71-9.08a3.15,3.15,0,0,0-3.24-2.3h-1.89c-.24,0-.35-.12-.35-.41v-1.53a.31.31,0,0,1,.35-.35c.83,0,2.71.18,6.49.18,3.54,0,5-.18,5.72-.18.41,0,.47.18.47.41v1.47c0,.24-.12.41-.35.41h-1.59c-1.59,0-2.18,1-2.3,3.24-.24,4-.24,9.79-.24,13.62v22.05c0,.83-.06,1.42-.29,1.42-.71,0-1.24-.71-1.42-.94s-3.54-4.48-7.19-9.08c-4.13-5.13-8.43-10.55-8.79-10.91-.65-.59-11.5-14.21-11.85-14.68H496v13.09c0,5.48.47,15.09.59,16.27.24,2.3.59,3.42,2.18,3.42h1.77c.41,0,.47.18.47.53v1.3c0,.35-.06.47-.47.47-.59,0-4.13-.18-5.72-.18-1.24,0-5.31.18-5.9.18-.24,0-.29-.12-.29-.41v-1.53a.31.31,0,0,1,.35-.35h2c1.71,0,2.36-.71,2.65-3.6.12-1.12.24-7.84.24-18.34Z" transform="translate(-105.45 -235.06)"/><path class="cls-1" d="M561.61,278.57a10.74,10.74,0,0,1-7-7.9c-.71-2.65-.94-6.6-.94-14.33v-14c0-2.06-.41-3-2.24-3h-2.77c-.35,0-.41-.12-.41-.53v-1.3c0-.35.06-.47.53-.47s3.48.18,8.08.18,7.43-.18,8.08-.18c.47,0,.53.12.53.35v1.53c0,.29-.06.41-.47.41H562a2.65,2.65,0,0,0-2.83,2.42c-.06.53-.12,4.66-.12,7.66v3.89c0,3.12.24,10.61.29,12.5a14.14,14.14,0,0,0,1.89,7.49c2.18,3.18,6,4.25,9.37,4.25s6.78-1.12,8.84-3.24c2.3-2.48,3.07-6,3.07-10.38V251.27c0-4.48-.12-7.9-.29-9.37a2.63,2.63,0,0,0-2.65-2.59H577c-.35,0-.41-.18-.41-.47v-1.42c0-.29.06-.41.41-.41.59,0,3.3.18,7.25.18s6-.18,6.49-.18.59.24.59.41v1.3c0,.35-.06.59-.35.59h-2.42c-2.18,0-2.36,1.65-2.54,2.36s-.12,9-.12,9.79-.12,11.14-.29,13.44c-.35,4.83-1.65,8.55-5,11.38-2.36,2.18-6,3.54-11.08,3.54A21.91,21.91,0,0,1,561.61,278.57Z" transform="translate(-105.45 -235.06)"/><path class="cls-1" d="M599.71,244.85c0-3.48-1.77-5.42-3.89-5.48l-2.42-.06c-.29,0-.35-.24-.35-.41v-1.53c0-.24.06-.35.35-.35s.77.06,1.65.06,2.18.12,4.19.12,3.24-.12,4-.12a2,2,0,0,1,1.71.77c.29.35,11.73,15.21,12.38,16s10.61,13,12,14.92h.24v-7c0-5.25-.06-8.14-.18-11.08-.06-2.3-.35-8.08-.71-9.08a3.15,3.15,0,0,0-3.24-2.3h-1.89c-.24,0-.35-.12-.35-.41v-1.53a.31.31,0,0,1,.35-.35c.83,0,2.71.18,6.49.18,3.54,0,5-.18,5.72-.18.41,0,.47.18.47.41v1.47c0,.24-.12.41-.35.41h-1.59c-1.59,0-2.18,1-2.3,3.24-.24,4-.24,9.79-.24,13.62v22.05c0,.83-.06,1.42-.29,1.42-.71,0-1.24-.71-1.41-.94s-3.54-4.48-7.19-9.08c-4.13-5.13-8.43-10.55-8.79-10.91-.65-.59-11.5-14.21-11.85-14.68h-.35v13.09c0,5.48.47,15.09.59,16.27.24,2.3.59,3.42,2.18,3.42h1.77c.41,0,.47.18.47.53v1.3c0,.35-.06.47-.47.47-.59,0-4.13-.18-5.72-.18-1.24,0-5.31.18-5.9.18-.24,0-.29-.12-.29-.41v-1.53a.31.31,0,0,1,.35-.35h2c1.71,0,2.36-.71,2.65-3.6.12-1.12.24-7.84.24-18.34Z" transform="translate(-105.45 -235.06)"/><path class="cls-1" d="M646.88,254.22c0-1.42-.18-12-.24-12.91-.12-1.41-.71-2-2.95-2h-3.42c-.29,0-.47-.12-.47-.35v-1.59c0-.24.18-.35.41-.35.71,0,3.71.18,9.2.18,5.25,0,7.13-.18,8-.18a.37.37,0,0,1,.41.41v1.47c0,.29-.18.41-.47.41h-2.77c-1.18,0-2.06.47-2.06,1.65,0,.59-.18,13.62-.18,14.33v4.54c0,.59.18,14.21.18,14.86,0,1.83.88,2.12,2.77,2.12h2.42c.29,0,.47.12.47.41v1.53q0,.35-.53.35c-.71,0-3.07-.18-8.2-.18-5.6,0-8.14.18-8.79.18-.29,0-.47-.12-.47-.35v-1.59c0-.24.18-.35.47-.35h3.3c1.18,0,2.42-.18,2.65-1.71.12-.88.29-13.62.29-16.75Z" transform="translate(-105.45 -235.06)"/><path class="cls-1" d="M672,276c-4.19-2.54-8.67-8.9-8.67-17.51a22.9,22.9,0,0,1,5.48-14.68,19.29,19.29,0,0,1,16-7.49A19.86,19.86,0,0,1,698,241a22.71,22.71,0,0,1,8.08,17.63,21.51,21.51,0,0,1-4.42,12.91c-3.6,4.78-8.84,8.31-17,8.31A25.84,25.84,0,0,1,672,276Zm28.3-16.92c0-12.91-9.2-20.52-15.74-20.52-.88,0-4.89-.71-9.32,3.48-4,3.77-5.9,9.73-5.9,14.56,0,15.51,10.79,21,15.8,21C698.12,277.57,700.3,264.3,700.3,259.06Z" transform="translate(-105.45 -235.06)"/><path class="cls-1" d="M716.87,244.85c0-3.48-1.77-5.42-3.89-5.48l-2.42-.06c-.29,0-.35-.24-.35-.41v-1.53c0-.24.06-.35.35-.35s.77.06,1.65.06,2.18.12,4.19.12,3.24-.12,4-.12a2,2,0,0,1,1.71.77c.29.35,11.73,15.21,12.38,16s10.61,13,12,14.92h.24v-7c0-5.25-.06-8.14-.18-11.08-.06-2.3-.35-8.08-.71-9.08a3.15,3.15,0,0,0-3.24-2.3h-1.89c-.24,0-.35-.12-.35-.41v-1.53a.31.31,0,0,1,.35-.35c.83,0,2.71.18,6.49.18,3.54,0,5-.18,5.72-.18.41,0,.47.18.47.41v1.47c0,.24-.12.41-.35.41h-1.59c-1.59,0-2.18,1-2.3,3.24-.24,4-.24,9.79-.24,13.62v22.05c0,.83-.06,1.42-.29,1.42-.71,0-1.24-.71-1.42-.94s-3.54-4.48-7.19-9.08c-4.13-5.13-8.43-10.55-8.79-10.91-.65-.59-11.5-14.21-11.85-14.68H719v13.09c0,5.48.47,15.09.59,16.27.24,2.3.59,3.42,2.18,3.42h1.77c.41,0,.47.18.47.53v1.3c0,.35-.06.47-.47.47-.59,0-4.13-.18-5.72-.18-1.24,0-5.31.18-5.9.18-.24,0-.29-.12-.29-.41v-1.53a.31.31,0,0,1,.35-.35h2c1.71,0,2.36-.71,2.65-3.6.12-1.12.24-7.84.24-18.34Z" transform="translate(-105.45 -235.06)"/><path class="cls-1" d="M190.53,312.24c-.28-.21-.42-.28-.53-.28s-.23.16-.37.39-.26.28-.42.28-.26-.12-.21-.37c.09-.58.33-3.53.39-4.2,0-.14.07-.14.16-.14l.35,0c.09,0,.14,0,.14.19a4.56,4.56,0,0,0,.84,2.69,3.88,3.88,0,0,0,3.25,1.72,3,3,0,0,0,3.16-2.95c0-2.39-1.72-3.27-3.58-3.92a9,9,0,0,1-3.39-1.88,4.54,4.54,0,0,1-1.16-3.39,4.38,4.38,0,0,1,1.44-3,4.62,4.62,0,0,1,3.25-1.12,6.67,6.67,0,0,1,2.74.58c.21.12.33.09.44,0l.3-.28a.45.45,0,0,1,.3-.14c.12,0,.19.19.19.39,0,.81.3,3.18.33,3.69,0,.12,0,.16-.12.19l-.28.07a.1.1,0,0,1-.14-.07,5.63,5.63,0,0,0-1.44-2.58,3.24,3.24,0,0,0-2.53-1,2.63,2.63,0,0,0-2.81,2.72,2.83,2.83,0,0,0,.72,2,7.32,7.32,0,0,0,2.65,1.39c1.6.51,2.9.91,3.74,1.93a4.54,4.54,0,0,1,1,3.16c0,2.74-1.67,5.09-4.74,5.09A5.72,5.72,0,0,1,190.53,312.24Z" transform="translate(-105.45 -235.06)"/><path class="cls-1" d="M216.25,297.49h-.58a17,17,0,0,0-3.67.28c-1,.33-1.74,2-2.07,2.69a.17.17,0,0,1-.23.12l-.42-.12c-.07,0-.14,0-.09-.19.23-.84,1-3.83,1.09-4.09s.14-.37.23-.37a.41.41,0,0,1,.28.09l.3.21a1.92,1.92,0,0,0,1.32.39c1.23,0,2.21.14,4.39.14h1.11c2.53,0,3.53-.09,4.67-.14a2.29,2.29,0,0,0,1.21-.33l.44-.28a.5.5,0,0,1,.28-.09c.12,0,.16.07.21.37s.49,3.16.67,4.18c0,.12,0,.16-.14.19l-.37.09c-.09,0-.12,0-.19-.16-.19-.44-.88-2.23-1.65-2.6a14,14,0,0,0-4-.39h-.65v6.62c0,.33,0,6.83,0,7.22,0,.58.23.93.79.93h1.46c.21,0,.23.07.23.23V313c0,.12,0,.19-.23.19s-1-.07-3.25-.07-3.2.07-3.53.07-.21-.09-.21-.23v-.44c0-.16,0-.23.16-.23h1.58a.7.7,0,0,0,.77-.56c.07-.67.07-7.8.07-8.24Z" transform="translate(-105.45 -235.06)"/><path class="cls-1" d="M237.36,306.64c-.23.58-1.51,4.11-1.63,4.6,0,.16-.07.4-.07.51,0,.33.28.51.79.51h1.09c.16,0,.23,0,.23.16V313c0,.16-.07.21-.19.21-.33,0-1.28-.07-2.65-.07-1.7,0-2.21.07-2.53.07-.12,0-.16,0-.16-.19v-.56a.16.16,0,0,1,.19-.16h.81c.7,0,1-.33,1.35-1.07.16-.37,1.86-4.67,2.53-6.57.16-.46,2-5.46,2.25-6.08a.94.94,0,0,0,0-.79.65.65,0,0,1-.16-.3c0-.07,0-.16.21-.21a4.68,4.68,0,0,0,1.93-1.16c.12-.12.19-.21.3-.21s.19.14.26.4c.44,1.46,2.25,6.67,2.69,8.15.53,1.81,2,6.13,2.37,6.8a1.73,1.73,0,0,0,1.58,1h.77c.14,0,.19.07.19.16V313c0,.12-.07.16-.23.16-.42,0-.91-.07-2.79-.07s-2.74.07-3.27.07c-.12,0-.19-.07-.19-.21v-.53c0-.14.07-.16.21-.16h.58c.65,0,.86-.23.7-.88-.19-.84-1.14-3.81-1.46-4.74Zm5.43-.84c-.21-.7-2.09-6.5-2.21-6.85-.07-.16-.12-.33-.19-.33s-.19.16-.26.35-2.32,6.25-2.49,6.83Z" transform="translate(-105.45 -235.06)"/><path class="cls-1" d="M263.64,297.49h-.58a17,17,0,0,0-3.67.28c-1,.33-1.74,2-2.07,2.69a.17.17,0,0,1-.23.12l-.42-.12c-.07,0-.14,0-.09-.19.23-.84,1-3.83,1.09-4.09s.14-.37.23-.37a.41.41,0,0,1,.28.09l.3.21a1.92,1.92,0,0,0,1.32.39c1.23,0,2.21.14,4.39.14h1.11c2.53,0,3.53-.09,4.67-.14a2.29,2.29,0,0,0,1.21-.33l.44-.28a.49.49,0,0,1,.28-.09c.12,0,.16.07.21.37s.49,3.16.67,4.18c0,.12,0,.16-.14.19l-.37.09c-.09,0-.12,0-.19-.16-.19-.44-.88-2.23-1.65-2.6a14,14,0,0,0-4-.39h-.65v6.62c0,.33,0,6.83,0,7.22,0,.58.23.93.79.93H268c.21,0,.23.07.23.23V313c0,.12,0,.19-.23.19s-1-.07-3.25-.07-3.2.07-3.53.07-.21-.09-.21-.23v-.44c0-.16,0-.23.16-.23h1.58a.7.7,0,0,0,.77-.56c.07-.67.07-7.8.07-8.24Z" transform="translate(-105.45 -235.06)"/><path class="cls-1" d="M288,304.2c.19,0,2.67-.09,2.95-.14.67-.12.86-.3,1.07-1a5.51,5.51,0,0,0,.19-1.14.15.15,0,0,1,.16-.16l.58,0a.14.14,0,0,1,.14.19c-.07.39-.07,2.3-.07,2.65,0,.81.09,1.93.14,2.42a.16.16,0,0,1-.14.19l-.51.07c-.12,0-.16,0-.19-.21s-.19-.84-.26-1.09a1.09,1.09,0,0,0-1-.91c-1.09-.12-2.69-.12-3.07-.12v1.44c0,1.25,0,3.51,0,4,0,1.21.6,1.67,1.32,1.81a9.62,9.62,0,0,0,1.72.16c.39,0,1.56,0,2-.07a4.48,4.48,0,0,0,2-.81A21.42,21.42,0,0,0,297,309c.07-.12.14-.21.28-.14l.37.21c.12.07.12.14,0,.33l-1.23,3.41a.49.49,0,0,1-.51.35l-2,0c-1.39,0-3.65,0-7.27,0-.86,0-1.51,0-2,0l-1,0c-.14,0-.21,0-.21-.16v-.63c0-.09.07-.12.23-.12h.93c1.07,0,1.16-.16,1.16-1v-7.78c0-1.93,0-4.83-.07-5.06-.09-.74-.32-.91-1.18-.91h-.84c-.12,0-.19,0-.19-.16v-.63c0-.07,0-.12.16-.12.51,0,1.32.07,2.86.07h1l6.9,0c.37,0,.81,0,.93,0s.16,0,.19.12c.09.33,1.11,3.51,1.18,3.74s0,.16-.07.21l-.35.19c-.07,0-.16,0-.19-.07a19,19,0,0,0-2.32-2.65,3.6,3.6,0,0,0-1.77-.63L288,297.4Z" transform="translate(-105.45 -235.06)"/><path class="cls-1" d="M326.33,311.31a9.34,9.34,0,0,1-2.48-6.5,8.83,8.83,0,0,1,2.37-6.15,8.09,8.09,0,0,1,5.81-2.35,9.65,9.65,0,0,1,4.69,1.28c.3.19.42.16.46,0l.19-.67c0-.14.09-.14.3-.14s.26,0,.26.37.46,3.86.58,4.51c0,.12,0,.21-.09.23l-.35.09c-.12,0-.16,0-.23-.19a9,9,0,0,0-1.81-2.88,5.38,5.38,0,0,0-4-1.79c-4.16,0-5.83,3.69-5.81,7.08a9.3,9.3,0,0,0,2.23,6,5.16,5.16,0,0,0,4.46,2,7.1,7.1,0,0,0,5.74-2.95c.07-.12.12-.14.19-.07l.3.23c.07,0,.12.09,0,.21a8.32,8.32,0,0,1-6.92,3.9A8.09,8.09,0,0,1,326.33,311.31Z" transform="translate(-105.45 -235.06)"/><path class="cls-1" d="M353.3,311.94a8.12,8.12,0,0,1-3.41-6.9,9,9,0,0,1,2.16-5.78,7.6,7.6,0,0,1,6.29-2.95,7.82,7.82,0,0,1,5.2,1.83,9,9,0,0,1,3.18,6.94,8.47,8.47,0,0,1-1.74,5.09,7.89,7.89,0,0,1-6.69,3.27A10.19,10.19,0,0,1,353.3,311.94Zm11.15-6.66c0-5.09-3.62-8.08-6.2-8.08a4.46,4.46,0,0,0-3.67,1.37,8.28,8.28,0,0,0-2.32,5.74c0,6.11,4.25,8.27,6.22,8.27C363.59,312.56,364.45,307.34,364.45,305.27Z" transform="translate(-105.45 -235.06)"/><path class="cls-1" d="M388.33,309.38c.33-.35,2.65-5.9,2.83-6.2s2.69-5.78,2.76-6.25c0-.25.3-.28.53-.28,3.09,0,3.88-.07,4.13-.07s.14.07.14.16v.53c0,.14,0,.21-.19.21h-1c-.7,0-.77.42-.77,1s-.07,4-.07,5.55v1.62c0,1.16.07,4.92.07,5.39,0,.88.21,1.25.79,1.25h1.37c.14,0,.16.07.16.16V313c0,.14,0,.21-.21.21s-.7-.07-3.25-.07c-2.14,0-3,.07-3.34.07s-.19-.07-.19-.21v-.53c0-.12,0-.16.19-.16h1.58c.4,0,.6-.14.65-.84,0-.28,0-4.32,0-6V303.9c0-1.53,0-5.67-.07-5.88h0c-.23.3-3.53,7.62-3.65,7.85s-2.72,6.2-2.81,6.41-.28.56-.46.56-.25-.19-.35-.42L384,304.65c-.44-1.07-2.55-6.27-2.88-6.55-.09.33-.14,6.2-.14,6.48s0,5.18,0,6c.12,1.32.33,1.7,1.07,1.7h1.16c.14,0,.16.07.16.16V313c0,.09,0,.16-.21.16s-.88-.07-2.81-.07-2.79.07-3,.07-.21,0-.21-.21v-.56a.12.12,0,0,1,.14-.14h1.23c.88,0,1.09-.6,1.23-1.39.28-1.65.35-7.59.35-8s0-3.83,0-4.5,0-.86-1-.86h-1.42c-.14,0-.16-.07-.16-.16v-.6c0-.07,0-.14.16-.14s.86.07,2.83.07c1.09,0,1.7-.07,2-.07a.53.53,0,0,1,.6.39Z" transform="translate(-105.45 -235.06)"/><path class="cls-1" d="M420.29,309.38c.33-.35,2.65-5.9,2.83-6.2s2.69-5.78,2.76-6.25c0-.25.3-.28.53-.28,3.09,0,3.88-.07,4.13-.07s.14.07.14.16v.53c0,.14,0,.21-.19.21h-1c-.7,0-.77.42-.77,1s-.07,4-.07,5.55v1.62c0,1.16.07,4.92.07,5.39,0,.88.21,1.25.79,1.25h1.37c.14,0,.16.07.16.16V313c0,.14,0,.21-.21.21s-.7-.07-3.25-.07c-2.14,0-3,.07-3.34.07s-.19-.07-.19-.21v-.53c0-.12,0-.16.19-.16h1.58c.4,0,.6-.14.65-.84,0-.28,0-4.32,0-6V303.9c0-1.53,0-5.67-.07-5.88h0c-.23.3-3.53,7.62-3.65,7.85s-2.72,6.2-2.81,6.41-.28.56-.46.56-.25-.19-.35-.42L416,304.65c-.44-1.07-2.55-6.27-2.88-6.55-.09.33-.14,6.2-.14,6.48s0,5.18,0,6c.12,1.32.33,1.7,1.07,1.7h1.16c.14,0,.16.07.16.16V313c0,.09,0,.16-.21.16s-.88-.07-2.81-.07-2.79.07-3,.07-.21,0-.21-.21v-.56a.12.12,0,0,1,.14-.14h1.23c.88,0,1.09-.6,1.23-1.39.28-1.65.35-7.59.35-8s0-3.83,0-4.5,0-.86-1-.86h-1.42c-.14,0-.16-.07-.16-.16v-.6c0-.07,0-.14.16-.14s.86.07,2.83.07c1.09,0,1.7-.07,2-.07a.53.53,0,0,1,.6.39Z" transform="translate(-105.45 -235.06)"/><path class="cls-1" d="M446.41,313a4.23,4.23,0,0,1-2.76-3.11,24.31,24.31,0,0,1-.37-5.64v-5.53c0-.81-.16-1.18-.88-1.18H441.3c-.14,0-.16,0-.16-.21v-.51c0-.14,0-.19.21-.19s1.37.07,3.18.07,2.93-.07,3.18-.07.21,0,.21.14v.6c0,.12,0,.16-.19.16h-1.16a1,1,0,0,0-1.11,1c0,.21,0,1.83,0,3V303c0,1.23.09,4.18.12,4.92a5.57,5.57,0,0,0,.74,2.95,4.33,4.33,0,0,0,3.69,1.67,5,5,0,0,0,3.48-1.28,5.78,5.78,0,0,0,1.21-4.09v-5c0-1.77,0-3.11-.12-3.69a1,1,0,0,0-1-1h-1c-.14,0-.16-.07-.16-.19v-.56c0-.12,0-.16.16-.16s1.3.07,2.86.07,2.34-.07,2.55-.07.23.09.23.16v.51c0,.14,0,.23-.14.23h-1c-.86,0-.93.65-1,.93s0,3.53,0,3.86,0,4.39-.12,5.29a6,6,0,0,1-2,4.48,6.21,6.21,0,0,1-4.37,1.39A8.62,8.62,0,0,1,446.41,313Z" transform="translate(-105.45 -235.06)"/><path class="cls-1" d="M470.59,299.67c0-1.37-.7-2.14-1.53-2.16l-1,0c-.12,0-.14-.09-.14-.16v-.6c0-.09,0-.14.14-.14s.3,0,.65,0,.86,0,1.65,0,1.28,0,1.56,0a.81.81,0,0,1,.67.3c.12.14,4.62,6,4.88,6.32s4.18,5.13,4.74,5.88h.09v-2.76c0-2.07,0-3.21-.07-4.37a27.17,27.17,0,0,0-.28-3.58,1.24,1.24,0,0,0-1.28-.91H480c-.09,0-.14,0-.14-.16v-.6a.12.12,0,0,1,.14-.14c.33,0,1.07.07,2.55.07s2-.07,2.25-.07.19.07.19.16v.58c0,.09,0,.16-.14.16h-.63c-.63,0-.86.39-.91,1.28-.09,1.56-.09,3.86-.09,5.36v8.69c0,.33,0,.56-.12.56a.8.8,0,0,1-.56-.37s-1.39-1.77-2.83-3.58c-1.63-2-3.32-4.16-3.46-4.3s-4.53-5.6-4.67-5.78h-.14v5.16c0,2.16.19,5.95.23,6.41.09.91.23,1.35.86,1.35h.7c.16,0,.19.07.19.21V313c0,.14,0,.19-.19.19s-1.63-.07-2.25-.07-2.09.07-2.32.07-.12,0-.12-.16v-.6a.12.12,0,0,1,.14-.14h.79c.67,0,.93-.28,1-1.42,0-.44.09-3.09.09-7.22Z" transform="translate(-105.45 -235.06)"/><path class="cls-1" d="M498.35,303.37c0-.56-.07-4.74-.09-5.09,0-.56-.28-.79-1.16-.79h-1.35c-.12,0-.19,0-.19-.14v-.63c0-.09.07-.14.16-.14.28,0,1.46.07,3.62.07s2.81-.07,3.13-.07a.15.15,0,0,1,.16.16v.58c0,.12-.07.16-.19.16h-1.09c-.46,0-.81.19-.81.65,0,.23-.07,5.36-.07,5.64v1.79c0,.23.07,5.6.07,5.85,0,.72.35.84,1.09.84h1c.12,0,.19,0,.19.16v.6c0,.09-.07.14-.21.14s-1.21-.07-3.23-.07c-2.21,0-3.21.07-3.46.07s-.19,0-.19-.14v-.63c0-.09.07-.14.19-.14h1.3c.46,0,1-.07,1-.67,0-.35.12-5.36.12-6.6Z" transform="translate(-105.45 -235.06)"/><path class="cls-1" d="M520,297.49h-.58a17,17,0,0,0-3.67.28c-1,.33-1.74,2-2.07,2.69a.17.17,0,0,1-.23.12l-.42-.12c-.07,0-.14,0-.09-.19.23-.84,1-3.83,1.09-4.09s.14-.37.23-.37a.41.41,0,0,1,.28.09l.3.21a1.92,1.92,0,0,0,1.32.39c1.23,0,2.21.14,4.39.14h1.11c2.53,0,3.53-.09,4.67-.14a2.29,2.29,0,0,0,1.21-.33l.44-.28a.5.5,0,0,1,.28-.09c.12,0,.16.07.21.37s.49,3.16.67,4.18c0,.12,0,.16-.14.19l-.37.09c-.09,0-.12,0-.19-.16-.19-.44-.88-2.23-1.65-2.6a14,14,0,0,0-4-.39h-.65v6.62c0,.33,0,6.83,0,7.22,0,.58.23.93.79.93h1.46c.21,0,.23.07.23.23V313c0,.12,0,.19-.23.19s-1-.07-3.25-.07-3.21.07-3.53.07-.21-.09-.21-.23v-.44c0-.16,0-.23.16-.23h1.58a.7.7,0,0,0,.77-.56c.07-.67.07-7.8.07-8.24Z" transform="translate(-105.45 -235.06)"/><path class="cls-1" d="M547.64,308.78c0,.91.07,2.41.09,2.67.07.74.42.81,1,.81h.91c.16,0,.16.07.16.16V313c0,.14,0,.21-.16.21s-1.18-.07-3.13-.07-2.81.07-3.07.07c-.09,0-.14-.07-.14-.19v-.56c0-.09,0-.16.16-.16h1.14c.6,0,.79-.23.81-.58s.07-2.16.07-4.32V306c-.3-.6-4.16-7.15-4.83-8a1.77,1.77,0,0,0-1.21-.56h-.58c-.14,0-.16-.07-.16-.16v-.6c0-.09,0-.14.16-.14s1.3.07,2.72.07c2.39,0,3.23-.07,3.46-.07s.16,0,.16.12v.58c0,.12,0,.21-.16.21h-.77c-.7,0-.79.21-.7.77.07.37,2.93,5.41,3.62,6.73.86-1.35,4.11-6.18,4.2-6.6s.21-.91-.77-.91H550c-.14,0-.16-.07-.16-.21v-.56c0-.09,0-.14.16-.14s1.18.07,2.74.07c1.37,0,1.88-.07,2.09-.07s.19,0,.19.14v.56c0,.14,0,.21-.19.21h-.58a1.66,1.66,0,0,0-1.14.51c-.46.44-4.62,6.46-5.5,7.73Z" transform="translate(-105.45 -235.06)"/><path class="cls-1" d="M582.37,311.31a9.34,9.34,0,0,1-2.48-6.5,8.83,8.83,0,0,1,2.37-6.15,8.09,8.09,0,0,1,5.81-2.35,9.65,9.65,0,0,1,4.69,1.28c.3.19.42.16.46,0l.19-.67c0-.14.09-.14.3-.14s.26,0,.26.37.46,3.86.58,4.51c0,.12,0,.21-.09.23l-.35.09c-.12,0-.16,0-.23-.19a9,9,0,0,0-1.81-2.88,5.38,5.38,0,0,0-4-1.79c-4.16,0-5.83,3.69-5.81,7.08a9.3,9.3,0,0,0,2.23,6,5.16,5.16,0,0,0,4.46,2,7.1,7.1,0,0,0,5.74-2.95c.07-.12.12-.14.19-.07l.3.23c.07,0,.12.09,0,.21a8.32,8.32,0,0,1-6.92,3.9A8.09,8.09,0,0,1,582.37,311.31Z" transform="translate(-105.45 -235.06)"/><path class="cls-1" d="M609.34,311.94a8.12,8.12,0,0,1-3.41-6.9,9,9,0,0,1,2.16-5.78,7.6,7.6,0,0,1,6.29-2.95,7.82,7.82,0,0,1,5.2,1.83,9,9,0,0,1,3.18,6.94,8.47,8.47,0,0,1-1.74,5.09,7.89,7.89,0,0,1-6.69,3.27A10.19,10.19,0,0,1,609.34,311.94Zm11.15-6.66c0-5.09-3.62-8.08-6.2-8.08a4.46,4.46,0,0,0-3.67,1.37,8.28,8.28,0,0,0-2.32,5.74c0,6.11,4.25,8.27,6.22,8.27C619.62,312.56,620.48,307.34,620.48,305.27Z" transform="translate(-105.45 -235.06)"/><path class="cls-1" d="M636.3,302.69c0-1.49,0-3.95-.07-4.37,0-.6-.16-.84-.86-.84h-1.09c-.14,0-.16-.12-.16-.23v-.51c0-.12,0-.16.16-.16s1.09.07,3,.07c2.25,0,3.23-.07,3.44-.07s.21.07.21.19v.53c0,.12,0,.19-.23.19h-1.39c-.72,0-.81.23-.81.91,0,.3-.07,3.81-.07,5.43v2c0,.4,0,5.41.07,6.36.51,0,5.11.09,5.83,0,1.37-.21,2.76-3,3.09-3.9,0-.09.09-.14.19-.09l.37.14c.07,0,.07.07,0,.21s-1,4-1.14,4.62c-.3,0-2.11,0-4.18,0s-4.34,0-5.6,0c-.91,0-1.58,0-2.07,0l-.91,0c-.16,0-.19,0-.19-.16v-.58c0-.12,0-.16.16-.16h1.11c.86,0,1-.33,1-.63s.07-6.22.07-7.64Z" transform="translate(-105.45 -235.06)"/><path class="cls-1" d="M660.16,302.69c0-1.49,0-3.95-.07-4.37,0-.6-.16-.84-.86-.84h-1.09c-.14,0-.16-.12-.16-.23v-.51c0-.12,0-.16.16-.16s1.09.07,3,.07c2.25,0,3.23-.07,3.44-.07s.21.07.21.19v.53c0,.12,0,.19-.23.19h-1.39c-.72,0-.81.23-.81.91,0,.3-.07,3.81-.07,5.43v2c0,.4,0,5.41.07,6.36.51,0,5.11.09,5.83,0,1.37-.21,2.76-3,3.09-3.9,0-.09.09-.14.19-.09l.37.14c.07,0,.07.07,0,.21s-1,4-1.14,4.62c-.3,0-2.11,0-4.18,0s-4.34,0-5.6,0c-.91,0-1.58,0-2.07,0l-.91,0c-.16,0-.19,0-.19-.16v-.58c0-.12,0-.16.16-.16h1.11c.86,0,1-.33,1-.63s.07-6.22.07-7.64Z" transform="translate(-105.45 -235.06)"/><path class="cls-1" d="M686.29,304.2c.19,0,2.67-.09,2.95-.14.67-.12.86-.3,1.07-1a5.48,5.48,0,0,0,.19-1.14.15.15,0,0,1,.16-.16l.58,0a.14.14,0,0,1,.14.19c-.07.39-.07,2.3-.07,2.65,0,.81.09,1.93.14,2.42a.16.16,0,0,1-.14.19l-.51.07c-.12,0-.16,0-.19-.21s-.19-.84-.25-1.09a1.09,1.09,0,0,0-1-.91c-1.09-.12-2.69-.12-3.07-.12v1.44c0,1.25,0,3.51,0,4,0,1.21.6,1.67,1.32,1.81a9.62,9.62,0,0,0,1.72.16c.39,0,1.56,0,2-.07a4.49,4.49,0,0,0,2-.81,21.46,21.46,0,0,0,1.9-2.44c.07-.12.14-.21.28-.14l.37.21c.12.07.12.14,0,.33l-1.23,3.41a.49.49,0,0,1-.51.35l-2,0c-1.39,0-3.65,0-7.27,0-.86,0-1.51,0-2,0l-1,0c-.14,0-.21,0-.21-.16v-.63c0-.09.07-.12.23-.12H683c1.07,0,1.16-.16,1.16-1v-7.78c0-1.93,0-4.83-.07-5.06-.09-.74-.33-.91-1.18-.91h-.84c-.12,0-.19,0-.19-.16v-.63c0-.07,0-.12.16-.12.51,0,1.32.07,2.86.07h1l6.9,0c.37,0,.81,0,.93,0s.16,0,.19.12c.09.33,1.11,3.51,1.18,3.74s0,.16-.07.21l-.35.19c-.07,0-.16,0-.19-.07a18.94,18.94,0,0,0-2.32-2.65,3.59,3.59,0,0,0-1.76-.63l-4.13-.09Z" transform="translate(-105.45 -235.06)"/><path class="cls-1" d="M720.21,308c0-.84-.26-1.07-1-1.07h-1c-.12,0-.16,0-.16-.14v-.58c0-.14,0-.19.14-.19.33,0,1.37.07,3,.07s2.42-.07,2.74-.07c.16,0,.19.07.19.16v.56c0,.09,0,.19-.16.19h-.91c-.42,0-.72.16-.72.88v3.07c0,.33.09.56.09.74s-.14.28-.37.37a13.11,13.11,0,0,1-6.34,1.49,8.92,8.92,0,0,1-6.5-2.65,9,9,0,0,1-2.14-6.39,8,8,0,0,1,2.63-5.9,9.55,9.55,0,0,1,6.53-2.21,8.22,8.22,0,0,1,4.58,1.35c.26.21.4.16.53,0l.35-.42c.09-.09.19-.21.33-.21s.21.12.21.28l.07,4.44c0,.12,0,.21-.12.21l-.42,0c-.09,0-.16-.07-.19-.19a7.77,7.77,0,0,0-1.39-2.74,5.43,5.43,0,0,0-4.23-1.9,5.59,5.59,0,0,0-4.44,1.88,7.81,7.81,0,0,0-2,5.34c0,2.74.77,5.13,2.21,6.5a5.78,5.78,0,0,0,4.09,1.65,7.45,7.45,0,0,0,3.81-.79c.53-.33.63-.84.63-2Z" transform="translate(-105.45 -235.06)"/><path class="cls-1" d="M739.68,304.2c.19,0,2.67-.09,2.95-.14.67-.12.86-.3,1.07-1a5.48,5.48,0,0,0,.19-1.14.15.15,0,0,1,.16-.16l.58,0a.14.14,0,0,1,.14.19c-.07.39-.07,2.3-.07,2.65,0,.81.09,1.93.14,2.42a.16.16,0,0,1-.14.19l-.51.07c-.12,0-.16,0-.19-.21s-.19-.84-.25-1.09a1.09,1.09,0,0,0-1-.91c-1.09-.12-2.69-.12-3.07-.12v1.44c0,1.25,0,3.51,0,4,0,1.21.6,1.67,1.32,1.81a9.62,9.62,0,0,0,1.72.16c.39,0,1.56,0,2-.07a4.49,4.49,0,0,0,2-.81,21.47,21.47,0,0,0,1.9-2.44c.07-.12.14-.21.28-.14l.37.21c.12.07.12.14,0,.33l-1.23,3.41a.49.49,0,0,1-.51.35l-2,0c-1.39,0-3.65,0-7.27,0-.86,0-1.51,0-2,0l-1,0c-.14,0-.21,0-.21-.16v-.63c0-.09.07-.12.23-.12h.93c1.07,0,1.16-.16,1.16-1v-7.78c0-1.93,0-4.83-.07-5.06-.09-.74-.33-.91-1.18-.91h-.84c-.12,0-.19,0-.19-.16v-.63c0-.07,0-.12.16-.12.51,0,1.32.07,2.86.07h1l6.9,0c.37,0,.81,0,.93,0s.16,0,.19.12c.09.33,1.11,3.51,1.18,3.74s0,.16-.07.21l-.35.19c-.07,0-.16,0-.19-.07a19,19,0,0,0-2.32-2.65,3.59,3.59,0,0,0-1.76-.63l-4.13-.09Z" transform="translate(-105.45 -235.06)"/><path class="cls-2" d="M136.55,312.47c-30.25,0-30.6-24.09-30.6-24.34V235.89h20.93v44.85c0,7.12,3.8,11.71,9.68,11.71s9.68-4.6,9.68-11.71V235.89h20.88l0,52.24C167.15,288.37,166.8,312.47,136.55,312.47Z" transform="translate(-105.45 -235.06)"/><path class="cls-1" d="M166.61,236.39l0,51.74s0,23.84-30.1,23.84-30.1-23.84-30.1-23.84V236.39h19.93v44.35c0,6.75,3.43,12.21,10.18,12.21s10.18-5.47,10.18-12.21V236.39h19.88m1-1H145.73v45.35c0,8.27-4.74,11.21-9.18,11.21s-9.18-2.95-9.18-11.21V235.39H105.45v52.74a25.46,25.46,0,0,0,3.92,12.45c6.46,10.24,18.35,12.38,27.18,12.38s20.72-2.15,27.19-12.38a25.46,25.46,0,0,0,3.92-12.45l0-51.74v-1Z" transform="translate(-105.45 -235.06)"/><path class="cls-1" d="M118.79,285.47c1.67-.43,6.14-1.62,10.52-3.06,10.43-3.45,11.6-5.38,11.31-7-.32-1.73-2.53-1.73-3.36-1.73-1,0-2.16.1-3.52.22-1.63.14-3.48.3-5.34.3-6.63,0-10.16-2.11-11.46-6.84-.91-3.34,0-6.83,2.69-10.37,7.35-9.62,26.4-17.2,43.77-17.52l-1.64,14.66c-4.61.47-19.33,2.2-21.7,5.19-.63.79-1.4,2-.88,3s1.94,1.24,3.39,1.24c1,0,2.25-.09,3.57-.18,1.62-.12,3.45-.25,5.27-.25,5,0,8.07,1,9.72,3.17s1.88,5.75.58,10.57c-1.69,4.23-5.91,10.22-16.4,14.89l-.51.23a136,136,0,0,1-27.68,9.42Z" transform="translate(-105.45 -235.06)"/><path class="cls-3" d="M162.29,240.54l-1.43,12.72c-6.72.71-19.15,2.42-21.58,5.48-.46.58-1.85,2.33-1,4.09s3.18,1.8,4.29,1.8,2.31-.09,3.64-.19c1.6-.11,3.41-.25,5.19-.25,4.58,0,7.5.91,8.93,2.77s1.62,5.17.43,9.64c-2.36,5.86-7.69,10.66-15.86,14.29l-.52.23a136.24,136.24,0,0,1-26.13,9.05l1.45-13.94c2-.53,6-1.6,9.91-2.91,9.26-3.06,12.51-5.25,12-8.09-.31-1.69-1.77-2.55-4.34-2.55-1,0-2.23.1-3.61.23-1.61.14-3.44.3-5.25.3-6.1,0-9.34-1.88-10.49-6.1-.83-3,0-6.23,2.52-9.5,7-9.2,25.07-16.49,41.85-17.09m2.24-2c-25.11,0-52.46,14.81-48.55,29.16,1.73,6.33,7.18,7.58,12.42,7.58,3.4,0,6.72-.53,8.85-.53,1.36,0,2.25.21,2.38.91.65,3.48-21.77,9-21.77,9L116,302.73A132.26,132.26,0,0,0,145.23,293c1.55-.74,13.31-5.31,17.43-15.71,3.52-13-4-15-11.26-15-3.35,0-6.66.43-8.84.43-2.37,0-3.41-.51-1.72-2.65,2.4-3,21.82-4.9,21.82-4.9l1.86-16.58Z" transform="translate(-105.45 -235.06)"/><path class="cls-1" d="M164.53,238.5l-1.86,16.58S143.25,257,140.85,260c-1.69,2.14-.65,2.65,1.72,2.65,2.18,0,5.49-.43,8.84-.43,7.29,0,14.77,2,11.26,15-4.12,10.4-15.89,15-17.43,15.71A132.26,132.26,0,0,1,116,302.73l1.88-18.06s22.41-5.56,21.77-9c-.13-.7-1-.91-2.38-.91-2.14,0-5.45.53-8.85.53-5.24,0-10.69-1.25-12.42-7.58-3.92-14.35,23.44-29.16,48.55-29.16m1.12-1h-1.12c-18.52,0-38.5,7.87-46.48,18.31-3.06,4-4.11,8.19-3,12.11,2.27,8.31,10.64,8.31,13.38,8.31,1.94,0,3.84-.17,5.51-.31,1.31-.11,2.44-.21,3.34-.21a4.07,4.07,0,0,1,1.35.15c-.75,1.62-10.19,5.16-21,7.84l-.68.17-.07.7L115,302.62l-.14,1.32,1.31-.24a134.64,134.64,0,0,0,29.5-9.85l.47-.21c6.16-2.74,14.19-7.74,17.47-16l0-.05v-.05c1.5-5.55,1.2-9.6-.91-12.36-2.71-3.54-7.75-4-11.31-4-1.89,0-3.76.13-5.41.25-1.34.1-2.49.18-3.43.18a5.46,5.46,0,0,1-1.51-.14,4,4,0,0,1,.57-.89c1.47-1.86,13.24-3.76,21.13-4.52l.81-.08.09-.81,1.86-16.58.12-1.11Z" transform="translate(-105.45 -235.06)"/></svg>